<svg width="74" height="74" viewBox="0 0 74 74" fill="none" xmlns="http://www.w3.org/2000/svg">
<g filter="url(#filter0_d)">
<circle cx="41" cy="30" r="17" fill="white"/>
<path d="M42.3412 29.8942L39.5134 32.9401C39.4355 33.0237 39.3927 33.1356 39.3927 33.2549C39.3927 33.3742 39.4355 33.486 39.5134 33.5698L39.7612 33.8365C39.8389 33.9205 39.9428 33.9667 40.0536 33.9667C40.1643 33.9667 40.2681 33.9205 40.3459 33.8365L43.7129 30.2102C43.791 30.1261 43.8338 30.0138 43.8335 29.8944C43.8338 29.7745 43.7911 29.6623 43.7129 29.5781L40.3491 25.9553C40.2713 25.8714 40.1675 25.8252 40.0567 25.8252C39.9459 25.8252 39.8421 25.8714 39.7642 25.9553L39.5165 26.2221C39.3553 26.3957 39.3553 26.6783 39.5165 26.8519L42.3412 29.8942Z" fill="#AEB8BE"/>
</g>
<defs>
<filter id="filter0_d" x="0" y="0" width="74" height="74" filterUnits="userSpaceOnUse" color-interpolation-filters="sRGB">
<feFlood flood-opacity="0" result="BackgroundImageFix"/>
<feColorMatrix in="SourceAlpha" type="matrix" values="0 0 0 0 0 0 0 0 0 0 0 0 0 0 0 0 0 0 127 0"/>
<feOffset dx="-4" dy="7"/>
<feGaussianBlur stdDeviation="10"/>
<feColorMatrix type="matrix" values="0 0 0 0 0.472813 0 0 0 0 0.645647 0 0 0 0 0.741667 0 0 0 0.25 0"/>
<feBlend mode="normal" in2="BackgroundImageFix" result="effect1_dropShadow"/>
<feBlend mode="normal" in="SourceGraphic" in2="effect1_dropShadow" result="shape"/>
</filter>
</defs>
</svg>
