<svg width="102" height="52" viewBox="0 0 102 52" fill="none" xmlns="http://www.w3.org/2000/svg">
<path d="M39.1151 14.8218C39.2426 14.397 39.4974 13.5481 39.3874 12.4616C39.2774 11.375 38.8021 10.0483 37.7831 8.82768C36.764 7.60701 35.1999 6.49043 33.7637 5.72877C32.3274 4.96709 31.0186 4.56012 29.559 4.47285C28.0994 4.38555 26.4898 4.618 24.8794 5.08908C23.2691 5.56008 21.6596 6.2691 20.0318 7.23442C18.404 8.19974 16.7598 9.42023 15.3579 10.7926C13.9561 12.165 12.7982 13.6877 11.9118 15.1765C11.0255 16.6652 10.4118 18.1181 9.97151 19.6185C9.53119 21.119 9.2649 22.6649 9.10268 24.0489C8.94042 25.433 8.8826 26.6535 9.05649 27.9912C9.2302 29.3289 9.63551 30.7818 10.2727 32.5031C10.9099 34.2244 11.7784 36.2124 12.9948 38.0324C14.2112 39.8525 15.7748 41.5035 17.5993 42.8176C19.4238 44.1317 21.5087 45.1085 23.281 45.7945C25.0532 46.4806 26.5129 46.876 28.1691 46.9748C29.8255 47.0736 31.6793 46.8758 33.3991 46.2653C35.119 45.6548 36.7064 44.6312 38.2409 43.4976C39.7754 42.364 41.2586 41.1193 42.0809 40.2763C42.903 39.4332 43.0653 38.9912 43.1061 38.5766C43.1469 38.162 43.0663 37.7732 42.6254 37.2016C42.1843 36.6299 41.3808 35.8726 40.7544 35.4163C40.1279 34.96 39.6774 34.8038 39.7349 34.4746C39.7923 34.1453 40.3577 33.6436 41.1805 33.5905C42.0033 33.5375 43.0848 33.9322 43.9937 34.5158C44.9025 35.0994 45.6399 35.8726 46.1313 36.5631C46.6227 37.2537 46.8684 37.8622 46.9422 38.5611C47.0161 39.26 46.9177 40.0491 46.6229 40.9128C46.3279 41.7765 45.8368 42.7131 44.6405 43.8895C43.4441 45.066 41.5453 46.4793 39.4727 47.6636C37.4001 48.8478 35.1566 49.8013 32.7645 50.4017C30.3724 51.0021 27.8341 51.2487 25.3602 51.1994C22.8862 51.1501 20.4788 50.8048 18.2901 50.1748C16.1015 49.5447 14.1062 48.6177 12.1157 47.3842C10.1252 46.1507 8.12691 44.605 6.44772 42.7959C4.76852 40.9868 3.40892 38.9148 2.4015 36.6782C1.39406 34.4417 0.73878 32.0405 0.36206 29.7465C-0.0146598 27.4525 -0.112969 25.265 0.140972 23.1109C0.394913 20.9568 1.00118 18.8348 1.7874 16.837C2.57363 14.8393 3.54043 12.9639 4.84255 11.1307C6.14465 9.29739 7.78336 7.50427 9.58504 5.9916C11.3867 4.47893 13.3531 3.24513 15.3349 2.32442C17.3167 1.40368 19.3159 0.795025 21.2731 0.433336C23.2303 0.0716465 25.1476 -0.0435074 26.9901 0.0140697C28.8327 0.0717094 30.6024 0.301938 32.3467 0.762325C34.091 1.22271 35.8114 1.91361 37.2938 2.744C38.7761 3.57437 40.0212 4.54479 41.217 5.50679C42.4128 6.46879 43.5596 7.42266 44.3213 8.05578C45.083 8.6889 45.4598 9.00139 45.6563 9.2067C45.8529 9.41199 45.8692 9.51062 44.8739 10.5842C43.8786 11.6577 41.8891 13.6876 40.7915 14.7239C39.6939 15.7602 39.4975 15.793 39.3496 15.7517C39.2017 15.7104 39.1037 15.5957 39.0515 15.4989C38.9992 15.402 38.993 15.3241 38.9899 15.2853C38.9878 15.2465 38.9878 15.2465 39.1153 14.8218H39.1151Z" fill="#E5ECF0"/>
<path d="M99.2433 43.4859C99.0634 43.4776 98.703 43.4613 98.0389 43.0992C97.3747 42.737 96.4097 42.031 95.3773 40.9617C94.3448 39.8924 93.248 38.4626 92.3469 37.3524C91.4458 36.2421 90.7417 35.4531 89.6928 34.7785C88.644 34.1039 87.2526 33.5452 86.0893 33.2655C84.9259 32.9858 83.9926 32.9858 83.1322 33.1421C82.2719 33.2983 81.4863 33.6105 80.8061 33.9642C80.126 34.3179 79.553 34.7123 79.0368 35.1236C78.5207 35.5348 78.0621 35.9623 77.7999 36.2337C77.5377 36.5052 77.4722 36.6203 77.0715 37.1951C76.6707 37.7698 75.9324 38.8075 75.0561 39.7776C74.1798 40.7477 73.1641 41.6523 72.386 42.2443C71.608 42.8363 71.0674 43.1158 70.6743 43.2968C70.2812 43.4776 70.0356 43.5599 69.757 43.5928C69.4784 43.6258 69.1676 43.6095 68.774 43.4036C68.3804 43.1979 67.9062 42.804 67.2586 42.2197C66.6111 41.6354 65.793 40.8635 64.9737 40.0492C64.1543 39.2348 63.3358 38.3803 62.4427 37.5166C61.5496 36.6529 60.5838 35.7819 59.5315 35.1064C58.4792 34.4309 57.3434 33.9526 56.0037 33.7129C54.664 33.4731 53.1258 33.4731 51.5233 33.8113C49.9208 34.1494 48.2577 34.8254 47.4092 35.1884C46.5608 35.5513 46.5281 35.6006 46.3729 35.7564C46.2177 35.9122 45.9385 36.1761 45.7337 36.3899C45.5288 36.6036 45.3979 36.768 45.2749 36.9407C45.1519 37.1134 45.0373 37.2943 44.7802 37.6623C44.523 38.0302 44.1244 38.5837 44.1044 39.0998C44.0836 39.616 44.4444 40.0902 44.6913 40.4169C44.9381 40.7435 45.0719 40.9228 45.2797 41.1658C45.4875 41.4087 45.7689 41.7151 46.0575 41.7024C46.346 41.6898 46.6421 41.358 46.9618 40.8885C47.2815 40.4189 47.6257 39.8102 47.9041 39.3334C48.1825 38.8566 48.3955 38.5113 48.8624 37.9932C49.3293 37.4751 50.05 36.7845 50.607 36.2828C51.1641 35.7812 51.557 35.4689 51.9913 35.1974C52.4256 34.926 52.8998 34.6962 53.2689 34.5644C53.6381 34.4326 53.8997 34.3999 54.2276 34.4659C54.5556 34.5318 54.9484 34.6961 55.4973 35.0581C56.0463 35.42 56.7502 35.9788 57.5285 36.7437C58.3068 37.5086 59.1582 38.4785 60.1986 39.4983C61.2391 40.518 62.4669 41.5863 63.5976 42.417C64.7284 43.2478 65.7595 43.8393 66.6363 44.2012C67.5132 44.5631 68.2333 44.6946 68.9216 44.7604C69.6099 44.8261 70.2649 44.8261 71.0676 44.7027C71.8703 44.5793 72.82 44.3328 73.5655 44.0943C74.311 43.8557 74.8516 43.6255 75.564 43.0664C76.2765 42.5073 77.1611 41.6192 78.1522 40.4764C79.1432 39.3335 80.2407 37.9356 81.1499 36.8667C82.0591 35.7977 82.7789 35.0587 83.2792 34.647C83.7795 34.2353 84.0575 34.1533 84.3773 34.1369C84.6971 34.1202 85.0572 34.1699 85.5733 34.6552C86.0893 35.1406 86.7607 36.0612 87.8502 37.3934C88.9397 38.7256 90.4456 40.4674 91.5848 41.6192C92.7239 42.771 93.4934 43.3298 94.4437 43.7327C95.3941 44.1356 96.5236 44.3821 97.4905 44.5137C98.4573 44.6452 99.2592 44.6617 99.7427 44.6206C100.226 44.5795 100.39 44.4805 100.382 44.3822C100.374 44.284 100.193 44.185 100.103 44.1356C100.013 44.0863 99.4232 43.4942 99.4232 43.4942C99.4232 43.4942 99.4233 43.4941 99.2433 43.4858V43.4859Z" fill="#D5DFE6"/>
<path d="M99.0348 34.4469C98.8549 34.4552 98.4945 34.4715 97.8303 34.8336C97.1662 35.1957 96.2012 35.9018 95.1688 36.9711C94.1363 38.0404 93.0395 39.4702 92.1384 40.5804C91.2373 41.6907 90.5332 42.4797 89.4843 43.1543C88.4355 43.8289 87.0441 44.3876 85.8808 44.6673C84.7174 44.947 83.7841 44.947 82.9237 44.7907C82.0633 44.6345 81.2777 44.3223 80.5976 43.9686C79.9175 43.6149 79.3445 43.2204 78.8283 42.8092C78.3121 42.398 77.8536 41.9705 77.5914 41.699C77.3292 41.4276 77.2637 41.3125 76.863 40.7378C76.4622 40.163 75.7239 39.1253 74.8476 38.1552C73.9713 37.1851 72.9555 36.2805 72.1775 35.6885C71.3995 35.0965 70.8589 34.817 70.4658 34.636C70.0727 34.4552 69.827 34.3729 69.5484 34.34C69.2698 34.307 68.9591 34.3233 68.5655 34.5292C68.1719 34.7349 67.6977 35.1288 67.0501 35.7131C66.4026 36.2974 65.5845 37.0693 64.7652 37.8836C63.9458 38.6979 63.1273 39.5525 62.2342 40.4162C61.3411 41.2798 60.3753 42.1509 59.323 42.8264C58.2707 43.5019 57.1348 43.9801 55.7952 44.2199C54.4555 44.4597 52.9173 44.4597 51.3148 44.1215C49.7123 43.7833 48.0492 43.1073 47.2007 42.7444C46.3523 42.3815 46.3196 42.3322 46.1644 42.1764C46.0092 42.0206 45.73 41.7567 45.5251 41.5429C45.3204 41.3291 45.1894 41.1649 45.0664 40.9921C44.9435 40.8194 44.8288 40.6385 44.534 40.2356C44.2391 39.8327 43.7643 39.2081 43.4037 38.6487C43.0432 38.0894 42.7975 37.596 42.4536 37.1275C42.1096 36.6589 41.6672 36.2147 41.0776 35.7708C40.488 35.3269 39.75 34.8823 39.1691 34.6524C38.5882 34.4224 38.1623 34.4059 36.4939 35.1147C34.8256 35.8235 31.9149 37.2577 29.7346 38.3231C27.5542 39.3885 26.103 40.0858 25.3783 40.2788C24.6536 40.4718 24.6529 40.1621 25.0096 39.6026C25.3664 39.0432 26.0784 38.2364 26.6668 37.4081C27.2552 36.5797 27.7189 35.7317 29.0552 34.9845C30.3915 34.2374 32.5914 33.5949 34.3822 33.2493C36.1729 32.9037 37.5432 32.8573 38.8439 32.9163C40.1446 32.9752 41.3727 33.1397 42.3312 33.37C43.2896 33.6003 43.9777 33.8963 44.6656 34.4964C45.3534 35.0966 46.0416 36.0013 46.5575 36.7576C47.0733 37.5139 47.4175 38.1226 47.6959 38.5994C47.9743 39.0762 48.1873 39.4216 48.6542 39.9397C49.1211 40.4578 49.8418 41.1483 50.3988 41.65C50.9559 42.1517 51.3488 42.4639 51.7831 42.7354C52.2174 43.0069 52.6916 43.2367 53.0607 43.3684C53.4299 43.5002 53.6915 43.533 54.0194 43.467C54.3474 43.401 54.7402 43.2367 55.2891 42.8748C55.838 42.5128 56.542 41.954 57.3203 41.1891C58.0986 40.4242 58.95 39.4544 59.9904 38.4346C61.0309 37.4148 62.2587 36.3466 63.3894 35.5158C64.5202 34.6851 65.5513 34.0936 66.4281 33.7316C67.305 33.3697 68.0251 33.2382 68.7134 33.1725C69.4017 33.1067 70.0567 33.1067 70.8594 33.2301C71.6621 33.3535 72.6118 33.6001 73.3573 33.8386C74.1028 34.0771 74.6434 34.3073 75.3558 34.8664C76.0683 35.4255 76.9529 36.3136 77.944 37.4565C78.935 38.5993 80.0325 39.9972 80.9417 41.0661C81.8509 42.1351 82.5707 42.8742 83.071 43.2858C83.5713 43.6975 83.8493 43.7796 84.1691 43.796C84.4889 43.8127 84.8491 43.763 85.3651 43.2776C85.8812 42.7922 86.5525 41.8716 87.642 40.5394C88.7315 39.2072 90.2374 37.4655 91.3766 36.3137C92.5157 35.1619 93.2852 34.6031 94.2355 34.2001C95.1859 33.7972 96.3154 33.5507 97.2823 33.4192C98.2491 33.2876 99.051 33.2711 99.5345 33.3122C100.018 33.3534 100.182 33.4523 100.174 33.5506C100.166 33.649 99.985 33.7478 99.8949 33.7973C99.8049 33.8466 99.2151 34.4387 99.2151 34.4387C99.2151 34.4387 99.2147 34.4387 99.0349 34.447L99.0348 34.4469Z" fill="#E5ECF0"/>
<path d="M23.2742 5.10698C22.842 5.11325 22.3296 5.13352 21.7735 5.18573C20.6612 5.29036 19.3765 5.52257 18.2237 5.86563C17.071 6.20869 16.0514 6.66228 14.9621 7.30204C13.8729 7.9418 12.7162 8.76699 11.5285 9.83711C10.3409 10.9072 9.12469 12.2198 8.12825 13.6446C7.13181 15.0693 6.35577 16.6038 5.84598 17.8017C5.33618 18.9996 5.09329 19.8604 4.87309 20.954C4.65289 22.0476 4.45589 23.3716 4.39794 24.7151C4.3399 26.0585 4.42102 27.4191 4.6527 28.8323C4.88441 30.2455 5.26653 31.7096 5.86318 33.2797C6.45981 34.8498 7.27065 36.5237 8.16266 37.9483C9.05467 39.373 10.0276 40.5482 11.0759 41.6122C12.1243 42.6763 13.2475 43.6295 14.3827 44.3912C15.5179 45.1529 16.6652 45.7227 18.0087 46.2226C19.3523 46.7226 20.8927 47.1533 22.1379 47.4033C23.3831 47.6532 24.3335 47.7221 25.0921 47.7163C25.8507 47.71 26.4189 47.6298 26.7895 47.5717C27.1601 47.5137 27.3338 47.4784 27.4496 47.4552C27.5653 47.432 27.6235 47.4199 28.2311 47.1379C28.316 47.0984 28.4146 47.0488 28.5203 46.9857C28.3986 46.9815 28.2756 46.9794 28.1559 46.9731C26.4996 46.8744 25.04 46.4785 23.2678 45.7925C21.4955 45.1065 19.4108 44.1301 17.5863 42.816C15.7618 41.5019 14.1984 39.8509 12.982 38.0308C11.7656 36.2108 10.8972 34.2223 10.26 32.501C9.62282 30.7797 9.21689 29.3276 9.04311 27.9899C8.8694 26.6521 8.927 25.4316 9.08926 24.0475C9.25152 22.6635 9.51758 21.1168 9.9579 19.6163C10.3982 18.1159 11.012 16.663 11.8983 15.1743C12.7846 13.6856 13.9429 12.1629 15.3448 10.7905C16.7467 9.41817 18.3912 8.1977 20.019 7.23238C21.615 6.28596 23.1928 5.58911 24.7717 5.1182C24.6292 5.12447 24.5157 5.12236 24.2933 5.1161C24.0589 5.10983 23.7064 5.10148 23.2742 5.10775L23.2742 5.10698Z" fill="#D5DFE5"/>
<path d="M93.2611 19.8353C91.2296 20.3179 90.5933 22.241 90.6875 23.9762L90.6565 29.3465L89.8029 29.3452V31.44H101.027L101.023 29.3625L99.7889 29.3458L99.8255 21.3931C99.6959 20.8415 99.3209 20.0607 98.6816 19.8347L93.2611 19.8353ZM95.7659 21.9691C96.2677 21.9775 96.7109 22.0036 96.7109 22.0036C96.8787 22.0746 97.049 22.1677 97.2398 22.4676V29.3279H93.1569C93.1569 29.3279 93.1381 24.9553 93.1652 24.1146C93.1797 23.6735 93.2349 23.1473 93.5172 22.6853C93.7731 22.2665 94.2465 22.1021 94.4692 22.037C94.7033 21.9687 95.2639 21.9601 95.7657 21.9691H95.7659ZM30.8635 31.0671H39.1247V28.7766H33.7139V26.7292H38.4841V24.2624H33.7139V22.3877H39.2475V19.9455L30.8623 19.9372L30.8635 31.0671ZM79.6142 31.0671H87.8753V28.7766H82.4645V26.7292H87.2347V24.2624H82.4645V22.3877H87.9982V19.9455L79.613 19.9372L79.6142 31.0671ZM77.2471 31.4041H74.5017V24.3074L72.4685 31.1418H70.5866L68.6199 24.3074V31.4041H66.0221V19.7303H69.7763L71.6383 26.9976L73.5624 19.7477L77.2471 19.731V31.4041ZM58.5261 19.6496C55.4998 19.6497 53.0466 22.2893 53.0467 25.5454C53.0466 28.8014 55.4998 31.441 58.5261 31.4411C61.5524 31.441 64.0056 28.8014 64.0055 25.5454C64.0056 22.2893 61.5524 19.6497 58.5261 19.6496ZM58.5261 22.1653C60.1548 22.1652 61.4752 23.7559 61.4749 25.718C61.4747 27.6797 60.1545 29.2698 58.5261 29.2697C56.8977 29.2698 55.5775 27.6797 55.5773 25.718C55.577 23.7559 56.8974 22.1652 58.5261 22.1653ZM41.7096 19.9209V31.0553H44.1074L44.0949 26.3955H48.3691L48.3816 31.0902H50.6403V19.8987H48.26V24.3748H44.1421V19.8987L41.7096 19.9208V19.9209ZM22.3887 31.16H25.6204V17.5547H30.6939V14.3452H22.3887V31.16Z" fill="#D5DFE5"/>
<path d="M92.7699 19.2925C90.7384 19.7751 90.1021 21.6982 90.1963 23.4334L90.1653 28.8038L89.3117 28.8025V30.8972H100.536L100.532 28.8197L99.2977 28.803L99.3343 20.8503C99.2047 20.2988 98.8297 19.5179 98.1905 19.292L92.7699 19.2925ZM95.2747 21.4264C95.7765 21.4347 96.2196 21.4608 96.2196 21.4608C96.3875 21.5318 96.5578 21.625 96.7486 21.9249V28.7852H92.6656C92.6656 28.7852 92.6469 24.4126 92.674 23.5718C92.6885 23.1307 92.7436 22.6045 93.026 22.1425C93.2819 21.7237 93.7553 21.5593 93.978 21.4942C94.2121 21.426 94.7727 21.4174 95.2744 21.4264H95.2747ZM30.3723 30.5244H38.6334V28.2338H33.2227V26.1864H37.9928V23.7196H33.2227V21.8449H38.7563V19.4028L30.3711 19.3944L30.3723 30.5244ZM79.123 30.5244H87.3841V28.2338H81.9733V26.1864H86.7435V23.7196H81.9733V21.8449H87.507V19.4028L79.1218 19.3944L79.123 30.5244ZM76.7559 30.8614H74.0105V23.7646L71.9773 30.5991H70.0954L68.1287 23.7646V30.8614H65.5309V19.1875H69.2851L71.1471 26.4549L73.0712 19.205L76.7559 19.1882V30.8614ZM58.0349 19.1068C55.0086 19.1069 52.5554 21.7465 52.5555 25.0026C52.5554 28.2586 55.0086 30.8982 58.0349 30.8983C61.0612 30.8982 63.5144 28.2586 63.5143 25.0026C63.5144 21.7465 61.0612 19.1069 58.0349 19.1068ZM58.0349 21.6225C59.6636 21.6224 60.984 23.2131 60.9837 25.1753C60.9835 27.1369 59.6633 28.727 58.0349 28.7269C56.4065 28.727 55.0863 27.1369 55.0861 25.1753C55.0858 23.2131 56.4062 21.6224 58.0349 21.6225ZM41.2184 19.3782V30.5125H43.6162L43.6037 25.8527H47.8779L47.8904 30.5475H50.1491V19.356H47.7688V23.832H43.6509V19.356L41.2184 19.3781V19.3782ZM21.8975 30.6172H25.1292V17.0119H30.2027V13.8025H21.8975V30.6172Z" fill="#E5ECF0"/>
</svg>
