<svg width="102" height="52" viewBox="0 0 102 52" fill="none" xmlns="http://www.w3.org/2000/svg">
<path d="M39.1151 14.8218C39.2426 14.397 39.4974 13.5481 39.3874 12.4616C39.2774 11.375 38.8021 10.0483 37.7831 8.82768C36.764 7.60701 35.1999 6.49043 33.7637 5.72877C32.3274 4.96709 31.0186 4.56012 29.559 4.47285C28.0994 4.38555 26.4898 4.618 24.8794 5.08908C23.2691 5.56008 21.6596 6.2691 20.0318 7.23442C18.404 8.19974 16.7598 9.42023 15.3579 10.7926C13.9561 12.165 12.7982 13.6877 11.9118 15.1765C11.0255 16.6652 10.4118 18.1181 9.97151 19.6185C9.53119 21.119 9.2649 22.6649 9.10268 24.0489C8.94042 25.433 8.8826 26.6535 9.05649 27.9912C9.2302 29.3289 9.63551 30.7818 10.2727 32.5031C10.9099 34.2244 11.7784 36.2124 12.9948 38.0324C14.2112 39.8525 15.7748 41.5035 17.5993 42.8176C19.4238 44.1317 21.5087 45.1085 23.281 45.7945C25.0532 46.4806 26.5129 46.876 28.1691 46.9748C29.8255 47.0736 31.6793 46.8758 33.3991 46.2653C35.119 45.6548 36.7064 44.6312 38.2409 43.4976C39.7754 42.364 41.2586 41.1193 42.0809 40.2763C42.903 39.4332 43.0653 38.9912 43.1061 38.5766C43.1469 38.162 43.0663 37.7732 42.6254 37.2016C42.1843 36.6299 41.3808 35.8726 40.7544 35.4163C40.1279 34.96 39.6774 34.8038 39.7349 34.4746C39.7923 34.1453 40.3577 33.6436 41.1805 33.5905C42.0033 33.5375 43.0848 33.9322 43.9937 34.5158C44.9025 35.0994 45.6399 35.8726 46.1313 36.5631C46.6227 37.2537 46.8684 37.8622 46.9422 38.5611C47.0161 39.26 46.9177 40.0491 46.6229 40.9128C46.3279 41.7765 45.8368 42.7131 44.6405 43.8895C43.4441 45.066 41.5453 46.4793 39.4727 47.6636C37.4001 48.8478 35.1566 49.8013 32.7645 50.4017C30.3724 51.0021 27.8341 51.2487 25.3602 51.1994C22.8862 51.1501 20.4788 50.8048 18.2901 50.1748C16.1015 49.5447 14.1062 48.6177 12.1157 47.3842C10.1252 46.1507 8.12691 44.605 6.44772 42.7959C4.76852 40.9868 3.40892 38.9148 2.4015 36.6782C1.39406 34.4417 0.73878 32.0405 0.36206 29.7465C-0.0146598 27.4525 -0.112969 25.265 0.140972 23.1109C0.394913 20.9568 1.00118 18.8348 1.7874 16.837C2.57363 14.8393 3.54043 12.9639 4.84255 11.1307C6.14465 9.29739 7.78336 7.50427 9.58504 5.9916C11.3867 4.47893 13.3531 3.24513 15.3349 2.32442C17.3167 1.40368 19.3159 0.795025 21.2731 0.433336C23.2303 0.0716465 25.1476 -0.0435074 26.9901 0.0140697C28.8327 0.0717094 30.6024 0.301938 32.3467 0.762325C34.091 1.22271 35.8114 1.91361 37.2938 2.744C38.7761 3.57437 40.0212 4.54479 41.217 5.50679C42.4128 6.46879 43.5596 7.42266 44.3213 8.05578C45.083 8.6889 45.4598 9.00139 45.6563 9.2067C45.8529 9.41199 45.8692 9.51062 44.8739 10.5842C43.8786 11.6577 41.8891 13.6876 40.7915 14.7239C39.6939 15.7602 39.4975 15.793 39.3496 15.7517C39.2017 15.7104 39.1037 15.5957 39.0515 15.4989C38.9992 15.402 38.993 15.3241 38.9899 15.2853C38.9878 15.2465 38.9878 15.2465 39.1153 14.8218H39.1151Z" fill="#E5ECF0"/>
<path d="M99.2438 43.4859C99.0639 43.4776 98.7035 43.4613 98.0393 43.0992C97.3752 42.737 96.4102 42.031 95.3778 40.9617C94.3453 39.8924 93.2485 38.4626 92.3474 37.3524C91.4463 36.2421 90.7422 35.4531 89.6933 34.7785C88.6445 34.1039 87.2531 33.5452 86.0898 33.2655C84.9264 32.9858 83.9931 32.9858 83.1327 33.1421C82.2723 33.2983 81.4868 33.6105 80.8066 33.9642C80.1265 34.3179 79.5535 34.7123 79.0373 35.1236C78.5212 35.5348 78.0626 35.9623 77.8004 36.2337C77.5382 36.5052 77.4727 36.6203 77.072 37.1951C76.6712 37.7698 75.9329 38.8075 75.0566 39.7776C74.1803 40.7477 73.1645 41.6523 72.3865 42.2443C71.6085 42.8363 71.0679 43.1158 70.6748 43.2968C70.2817 43.4776 70.036 43.5599 69.7574 43.5928C69.4789 43.6258 69.168 43.6095 68.7745 43.4036C68.3809 43.1979 67.9067 42.804 67.2591 42.2197C66.6116 41.6354 65.7935 40.8635 64.9742 40.0492C64.1548 39.2348 63.3363 38.3803 62.4432 37.5166C61.5501 36.6529 60.5843 35.7819 59.532 35.1064C58.4797 34.4309 57.3438 33.9526 56.0042 33.7129C54.6645 33.4731 53.1263 33.4731 51.5238 33.8113C49.9213 34.1494 48.2581 34.8254 47.4097 35.1884C46.5612 35.5513 46.5286 35.6006 46.3734 35.7564C46.2182 35.9122 45.939 36.1761 45.7342 36.3899C45.5292 36.6036 45.3983 36.768 45.2754 36.9407C45.1524 37.1134 45.0378 37.2943 44.7807 37.6623C44.5235 38.0302 44.1249 38.5837 44.1049 39.0998C44.0841 39.616 44.4449 40.0902 44.6918 40.4169C44.9386 40.7435 45.0724 40.9228 45.2801 41.1658C45.488 41.4087 45.7694 41.7151 46.058 41.7024C46.3465 41.6898 46.6426 41.358 46.9623 40.8885C47.282 40.4189 47.6262 39.8102 47.9046 39.3334C48.183 38.8566 48.396 38.5113 48.8629 37.9932C49.3298 37.4751 50.0505 36.7845 50.6075 36.2828C51.1646 35.7812 51.5575 35.4689 51.9918 35.1974C52.4261 34.926 52.9003 34.6962 53.2694 34.5644C53.6386 34.4326 53.9002 34.3999 54.2281 34.4659C54.5561 34.5318 54.9489 34.6961 55.4978 35.0581C56.0467 35.42 56.7507 35.9788 57.529 36.7437C58.3072 37.5086 59.1586 38.4785 60.1991 39.4983C61.2396 40.518 62.4674 41.5863 63.5981 42.417C64.7289 43.2478 65.76 43.8393 66.6368 44.2012C67.5136 44.5631 68.2338 44.6946 68.9221 44.7604C69.6104 44.8261 70.2654 44.8261 71.0681 44.7027C71.8708 44.5793 72.8204 44.3328 73.566 44.0943C74.3115 43.8557 74.8521 43.6255 75.5645 43.0664C76.277 42.5073 77.1616 41.6192 78.1526 40.4764C79.1437 39.3335 80.2412 37.9356 81.1504 36.8667C82.0596 35.7977 82.7794 35.0587 83.2797 34.647C83.78 34.2353 84.058 34.1533 84.3778 34.1369C84.6976 34.1202 85.0577 34.1699 85.5737 34.6552C86.0898 35.1406 86.7612 36.0612 87.8507 37.3934C88.9402 38.7256 90.4461 40.4674 91.5853 41.6192C92.7244 42.771 93.4939 43.3298 94.4442 43.7327C95.3946 44.1356 96.5241 44.3821 97.491 44.5137C98.4578 44.6452 99.2597 44.6617 99.7431 44.6206C100.227 44.5795 100.391 44.4805 100.383 44.3822C100.374 44.284 100.194 44.185 100.104 44.1356C100.014 44.0863 99.4237 43.4942 99.4237 43.4942C99.4237 43.4942 99.4237 43.4941 99.2438 43.4858V43.4859Z" fill="#D5DFE6"/>
<path d="M99.0353 34.4469C98.8554 34.4552 98.495 34.4715 97.8308 34.8336C97.1666 35.1957 96.2017 35.9018 95.1692 36.9711C94.1368 38.0404 93.04 39.4702 92.1389 40.5804C91.2378 41.6907 90.5336 42.4797 89.4848 43.1543C88.436 43.8289 87.0446 44.3876 85.8812 44.6673C84.7179 44.947 83.7846 44.947 82.9242 44.7907C82.0638 44.6345 81.2782 44.3223 80.5981 43.9686C79.918 43.6149 79.3449 43.2204 78.8288 42.8092C78.3126 42.398 77.8541 41.9705 77.5919 41.699C77.3297 41.4276 77.2642 41.3125 76.8634 40.7378C76.4627 40.163 75.7244 39.1253 74.8481 38.1552C73.9718 37.1851 72.956 36.2805 72.178 35.6885C71.4 35.0965 70.8594 34.817 70.4663 34.636C70.0732 34.4552 69.8275 34.3729 69.5489 34.34C69.2703 34.307 68.9596 34.3233 68.566 34.5292C68.1724 34.7349 67.6982 35.1288 67.0506 35.7131C66.403 36.2974 65.585 37.0693 64.7656 37.8836C63.9463 38.6979 63.1278 39.5525 62.2347 40.4162C61.3416 41.2798 60.3758 42.1509 59.3235 42.8264C58.2712 43.5019 57.1353 43.9801 55.7957 44.2199C54.456 44.4597 52.9178 44.4597 51.3153 44.1215C49.7128 43.7833 48.0497 43.1073 47.2012 42.7444C46.3528 42.3815 46.3201 42.3322 46.1649 42.1764C46.0097 42.0206 45.7304 41.7567 45.5256 41.5429C45.3209 41.3291 45.1899 41.1649 45.0669 40.9921C44.9439 40.8194 44.8293 40.6385 44.5345 40.2356C44.2396 39.8327 43.7648 39.2081 43.4042 38.6487C43.0437 38.0894 42.798 37.596 42.454 37.1275C42.1101 36.6589 41.6677 36.2147 41.0781 35.7708C40.4885 35.3269 39.7504 34.8823 39.1696 34.6524C38.5887 34.4224 38.1628 34.4059 36.4944 35.1147C34.8261 35.8235 31.9153 37.2577 29.735 38.3231C27.5547 39.3885 26.1035 40.0858 25.3788 40.2788C24.6541 40.4718 24.6534 40.1621 25.0101 39.6026C25.3669 39.0432 26.0789 38.2364 26.6673 37.4081C27.2557 36.5797 27.7194 35.7317 29.0557 34.9845C30.392 34.2374 32.5919 33.5949 34.3827 33.2493C36.1734 32.9037 37.5437 32.8573 38.8444 32.9163C40.1451 32.9752 41.3732 33.1397 42.3317 33.37C43.2901 33.6003 43.9782 33.8963 44.666 34.4964C45.3538 35.0966 46.042 36.0013 46.5579 36.7576C47.0738 37.5139 47.418 38.1226 47.6964 38.5994C47.9748 39.0762 48.1878 39.4216 48.6547 39.9397C49.1216 40.4578 49.8423 41.1483 50.3993 41.65C50.9564 42.1517 51.3493 42.4639 51.7836 42.7354C52.2179 43.0069 52.6921 43.2367 53.0612 43.3684C53.4304 43.5002 53.692 43.533 54.0199 43.467C54.3479 43.401 54.7407 43.2367 55.2896 42.8748C55.8385 42.5128 56.5425 41.954 57.3208 41.1891C58.099 40.4242 58.9505 39.4544 59.9909 38.4346C61.0314 37.4148 62.2592 36.3466 63.3899 35.5158C64.5207 34.6851 65.5518 34.0936 66.4286 33.7316C67.3054 33.3697 68.0256 33.2382 68.7139 33.1725C69.4022 33.1067 70.0572 33.1067 70.8599 33.2301C71.6626 33.3535 72.6122 33.6001 73.3578 33.8386C74.1033 34.0771 74.6439 34.3073 75.3563 34.8664C76.0688 35.4255 76.9534 36.3136 77.9444 37.4565C78.9355 38.5993 80.033 39.9972 80.9422 41.0661C81.8514 42.1351 82.5712 42.8742 83.0715 43.2858C83.5718 43.6975 83.8498 43.7796 84.1696 43.796C84.4894 43.8127 84.8495 43.763 85.3656 43.2776C85.8816 42.7922 86.553 41.8716 87.6425 40.5394C88.732 39.2072 90.2379 37.4655 91.3771 36.3137C92.5162 35.1619 93.2857 34.6031 94.236 34.2001C95.1864 33.7972 96.3159 33.5507 97.2828 33.4192C98.2496 33.2876 99.0515 33.2711 99.535 33.3122C100.018 33.3534 100.183 33.4523 100.175 33.5506C100.166 33.649 99.9855 33.7478 99.8954 33.7973C99.8053 33.8466 99.2156 34.4387 99.2156 34.4387C99.2156 34.4387 99.2152 34.4387 99.0354 34.447L99.0353 34.4469Z" fill="#E5ECF0"/>
<path d="M23.2747 5.10698C22.8425 5.11325 22.3301 5.13352 21.774 5.18573C20.6616 5.29036 19.377 5.52257 18.2242 5.86563C17.0715 6.20869 16.0519 6.66228 14.9626 7.30204C13.8734 7.9418 12.7167 8.76699 11.529 9.83711C10.3414 10.9072 9.12517 12.2198 8.12874 13.6446C7.1323 15.0693 6.35626 16.6038 5.84646 17.8017C5.33667 18.9996 5.09378 19.8604 4.87358 20.954C4.65338 22.0476 4.45638 23.3716 4.39842 24.7151C4.34038 26.0585 4.42151 27.4191 4.65319 28.8323C4.88489 30.2455 5.26702 31.7096 5.86367 33.2797C6.4603 34.8498 7.27114 36.5237 8.16315 37.9483C9.05515 39.373 10.0281 40.5482 11.0764 41.6122C12.1248 42.6763 13.248 43.6295 14.3832 44.3912C15.5184 45.1529 16.6657 45.7227 18.0092 46.2226C19.3528 46.7226 20.8932 47.1533 22.1384 47.4033C23.3836 47.6532 24.334 47.7221 25.0926 47.7163C25.8512 47.71 26.4194 47.6298 26.79 47.5717C27.1606 47.5137 27.3343 47.4784 27.4501 47.4552C27.5658 47.432 27.624 47.4199 28.2316 47.1379C28.3165 47.0984 28.4151 47.0488 28.5208 46.9857C28.3991 46.9815 28.2761 46.9794 28.1564 46.9731C26.5001 46.8744 25.0405 46.4785 23.2682 45.7925C21.496 45.1065 19.4113 44.1301 17.5868 42.816C15.7623 41.5019 14.1989 39.8509 12.9825 38.0308C11.766 36.2108 10.8977 34.2223 10.2605 32.501C9.62331 30.7797 9.21738 29.3276 9.04359 27.9899C8.86989 26.6521 8.92748 25.4316 9.08975 24.0475C9.25201 22.6635 9.51807 21.1168 9.95839 19.6163C10.3987 18.1159 11.0124 16.663 11.8988 15.1743C12.7851 13.6856 13.9434 12.1629 15.3453 10.7905C16.7472 9.41817 18.3917 8.1977 20.0195 7.23238C21.6154 6.28596 23.1933 5.58911 24.7722 5.1182C24.6297 5.12447 24.5162 5.12236 24.2938 5.1161C24.0594 5.10983 23.7069 5.10148 23.2747 5.10775L23.2747 5.10698Z" fill="#D5DFE5"/>
<path d="M93.2611 19.8353C91.2296 20.3179 90.5933 22.241 90.6875 23.9762L90.6565 29.3465L89.8029 29.3452V31.44H101.027L101.023 29.3625L99.7889 29.3458L99.8255 21.3931C99.6959 20.8415 99.3209 20.0607 98.6816 19.8347L93.2611 19.8353ZM95.7659 21.9691C96.2677 21.9775 96.7109 22.0036 96.7109 22.0036C96.8787 22.0746 97.049 22.1677 97.2398 22.4676V29.3279H93.1569C93.1569 29.3279 93.1381 24.9553 93.1652 24.1146C93.1797 23.6735 93.2349 23.1473 93.5172 22.6853C93.7731 22.2665 94.2465 22.1021 94.4692 22.037C94.7033 21.9687 95.2639 21.9601 95.7657 21.9691H95.7659ZM30.8635 31.0671H39.1247V28.7766H33.7139V26.7292H38.4841V24.2624H33.7139V22.3877H39.2475V19.9455L30.8623 19.9372L30.8635 31.0671ZM79.6142 31.0671H87.8753V28.7766H82.4645V26.7292H87.2347V24.2624H82.4645V22.3877H87.9982V19.9455L79.613 19.9372L79.6142 31.0671ZM77.2471 31.4041H74.5017V24.3074L72.4685 31.1418H70.5866L68.6199 24.3074V31.4041H66.0221V19.7303H69.7763L71.6383 26.9976L73.5624 19.7477L77.2471 19.731V31.4041ZM58.5261 19.6496C55.4998 19.6497 53.0466 22.2893 53.0467 25.5454C53.0466 28.8014 55.4998 31.441 58.5261 31.4411C61.5524 31.441 64.0056 28.8014 64.0055 25.5454C64.0056 22.2893 61.5524 19.6497 58.5261 19.6496ZM58.5261 22.1653C60.1548 22.1652 61.4752 23.7559 61.4749 25.718C61.4747 27.6797 60.1545 29.2698 58.5261 29.2697C56.8977 29.2698 55.5775 27.6797 55.5773 25.718C55.577 23.7559 56.8974 22.1652 58.5261 22.1653ZM41.7096 19.9209V31.0553H44.1074L44.0949 26.3955H48.3691L48.3816 31.0902H50.6403V19.8987H48.26V24.3748H44.1421V19.8987L41.7096 19.9208V19.9209ZM22.3887 31.16H25.6204V17.5547H30.6939V14.3452H22.3887V31.16Z" fill="#D5DFE5"/>
<path d="M92.7694 19.2925C90.7379 19.7751 90.1016 21.6982 90.1958 23.4334L90.1648 28.8038L89.3112 28.8025V30.8972H100.535L100.531 28.8197L99.2972 28.803L99.3338 20.8503C99.2042 20.2988 98.8292 19.5179 98.19 19.292L92.7694 19.2925ZM95.2742 21.4264C95.776 21.4347 96.2192 21.4608 96.2192 21.4608C96.387 21.5318 96.5573 21.625 96.7481 21.9249V28.7852H92.6651C92.6651 28.7852 92.6464 24.4126 92.6735 23.5718C92.688 23.1307 92.7431 22.6045 93.0255 22.1425C93.2814 21.7237 93.7548 21.5593 93.9775 21.4942C94.2116 21.426 94.7722 21.4174 95.2739 21.4264H95.2742ZM30.3718 30.5244H38.633V28.2338H33.2222V26.1864H37.9923V23.7196H33.2222V21.8449H38.7558V19.4028L30.3706 19.3944L30.3718 30.5244ZM79.1225 30.5244H87.3836V28.2338H81.9729V26.1864H86.743V23.7196H81.9729V21.8449H87.5065V19.4028L79.1213 19.3944L79.1225 30.5244ZM76.7554 30.8614H74.01V23.7646L71.9768 30.5991H70.0949L68.1282 23.7646V30.8614H65.5304V19.1875H69.2846L71.1466 26.4549L73.0708 19.205L76.7554 19.1882V30.8614ZM58.0344 19.1068C55.0081 19.1069 52.555 21.7465 52.555 25.0026C52.555 28.2586 55.0081 30.8982 58.0344 30.8983C61.0607 30.8982 63.5139 28.2586 63.5138 25.0026C63.5139 21.7465 61.0607 19.1069 58.0344 19.1068ZM58.0344 21.6225C59.6632 21.6224 60.9835 23.2131 60.9832 25.1753C60.983 27.1369 59.6628 28.727 58.0344 28.7269C56.406 28.727 55.0858 27.1369 55.0856 25.1753C55.0853 23.2131 56.4057 21.6224 58.0344 21.6225ZM41.2179 19.3782V30.5125H43.6157L43.6032 25.8527H47.8774L47.8899 30.5475H50.1487V19.356H47.7683V23.832H43.6504V19.356L41.2179 19.3781V19.3782ZM21.897 30.6172H25.1287V17.0119H30.2022V13.8025H21.897V30.6172Z" fill="#E5ECF0"/>
</svg>
