<svg width="35" height="35" viewBox="0 0 35 35" fill="none" xmlns="http://www.w3.org/2000/svg">
<path d="M17.5 0C7.88184 0 0 7.88184 0 17.5C0 27.1182 7.88184 35 17.5 35C27.1182 35 35 27.1182 35 17.5C35 7.88184 27.1182 0 17.5 0Z" fill="#EA1313"/>
<path d="M35 17.5C35 27.1182 27.1182 35 17.5 35V0C27.1182 0 35 7.88184 35 17.5Z" fill="#BF0606"/>
<rect x="7.51489" y="15.6831" width="20.2574" height="3.92078" rx="1.96039" fill="white"/>
<path d="M17.6436 15.6831H25.8118C26.8945 15.6831 27.7722 16.5608 27.7722 17.6435C27.7722 18.7262 26.8945 19.6039 25.8118 19.6039H17.6436V15.6831Z" fill="#EBEBFB"/>
</svg>
