<svg width="70" height="70" viewBox="0 0 70 70" fill="none" xmlns="http://www.w3.org/2000/svg">
<g clip-path="url(#clip0)">
<path d="M31.9819 13.4661V3.46953C31.9819 1.55396 30.429 0.000976562 28.5133 0.000976562C26.5978 0.000976562 25.0448 1.55383 25.0448 3.46953V13.4661C25.0448 17.8046 21.5277 21.3217 17.1892 21.3217C12.8507 21.3217 9.33359 17.8046 9.33359 13.4661V3.46953C9.33359 1.55396 7.78074 0.000976562 5.86504 0.000976562C3.94947 0.000976562 2.39648 1.55383 2.39648 3.46953V13.4661C2.39648 17.8517 4.30617 21.7893 7.33832 24.4974C8.36754 25.4166 8.36754 27.0485 7.33832 27.9676C4.30617 30.6757 2.39648 34.6134 2.39648 38.9989V48.9955C2.39648 50.9111 3.94934 52.4641 5.86504 52.4641C7.7806 52.4641 9.33359 50.9112 9.33359 48.9955V38.9989C9.33359 34.6604 12.8507 31.1433 17.1892 31.1433C21.5277 31.1433 25.0448 34.6604 25.0448 38.9989V48.9955C25.0448 50.9111 26.5976 52.4641 28.5133 52.4641C30.4289 52.4641 31.9819 50.9112 31.9819 48.9955V38.9989C31.9819 34.6134 30.0722 30.6757 27.04 27.9676C26.0108 27.0485 26.0108 25.4166 27.04 24.4974C30.0722 21.7893 31.9819 17.8517 31.9819 13.4661Z" fill="#FE7AB6"/>
<path d="M27.0394 27.9673C30.0724 30.6745 31.9825 34.6132 31.9825 38.9977V48.9953C31.9825 49.9518 31.5945 50.8195 30.9668 51.4471C30.339 52.0749 29.4715 52.4628 28.5135 52.4628C28.0113 52.4628 27.5345 52.3556 27.1028 52.1637C27.4936 51.9902 27.8463 51.7461 28.1453 51.447C28.7731 50.8192 29.161 49.9517 29.161 48.9952V38.9977C29.161 34.6132 26.8752 30.6745 23.8421 27.9673C22.8137 27.0475 22.8137 25.4153 23.8421 24.497C26.8751 21.7885 29.161 17.8511 29.161 13.4653V3.46896C29.161 2.05543 28.3159 0.839453 27.1028 0.299141C27.5346 0.107187 28.0113 0 28.5136 0C30.4293 0 31.9826 1.55312 31.9826 3.46896V13.4653C31.9826 17.8512 30.0725 21.7885 27.0395 24.497C26.011 25.4153 26.011 27.0475 27.0394 27.9673Z" fill="#FE5CA7"/>
<path d="M5.92822 7.28644H5.65479C5.2773 7.28644 4.97119 6.98032 4.97119 6.60284C4.97119 6.22536 5.2773 5.91925 5.65479 5.91925H5.92822C6.3057 5.91925 6.61182 6.22536 6.61182 6.60284C6.61182 6.98032 6.3057 7.28644 5.92822 7.28644Z" fill="#E8318D"/>
<path d="M5.92822 11.7387H5.65479C5.2773 11.7387 4.97119 11.4326 4.97119 11.0551C4.97119 10.6776 5.2773 10.3715 5.65479 10.3715H5.92822C6.3057 10.3715 6.61182 10.6776 6.61182 11.0551C6.61182 11.4326 6.3057 11.7387 5.92822 11.7387Z" fill="#E8318D"/>
<path d="M6.271 16.191H5.99756C5.62008 16.191 5.31396 15.8849 5.31396 15.5074C5.31396 15.13 5.62008 14.8239 5.99756 14.8239H6.271C6.64848 14.8239 6.95459 15.13 6.95459 15.5074C6.95459 15.8849 6.64848 16.191 6.271 16.191Z" fill="#E8318D"/>
<path d="M8.15514 20.6433H7.88184C7.50436 20.6433 7.19824 20.3372 7.19824 19.9597C7.19824 19.5822 7.50436 19.2761 7.88184 19.2761H8.15514C8.53262 19.2761 8.83873 19.5822 8.83873 19.9597C8.83873 20.3372 8.53275 20.6433 8.15514 20.6433Z" fill="#E8318D"/>
<path d="M11.582 24.3314H11.3086C10.9311 24.3314 10.625 24.0253 10.625 23.6478C10.625 23.2703 10.9311 22.9642 11.3086 22.9642H11.582C11.9595 22.9642 12.2656 23.2703 12.2656 23.6478C12.2656 24.0253 11.9595 24.3314 11.582 24.3314Z" fill="#E8318D"/>
<path d="M28.7259 7.28644H28.4526C28.0752 7.28644 27.769 6.98032 27.769 6.60284C27.769 6.22536 28.0752 5.91925 28.4526 5.91925H28.7259C29.1034 5.91925 29.4095 6.22536 29.4095 6.60284C29.4095 6.98032 29.1034 7.28644 28.7259 7.28644Z" fill="#E8318D"/>
<path d="M28.7259 11.7387H28.4526C28.0752 11.7387 27.769 11.4326 27.769 11.0551C27.769 10.6776 28.0752 10.3715 28.4526 10.3715H28.7259C29.1034 10.3715 29.4095 10.6776 29.4095 11.0551C29.4095 11.4326 29.1034 11.7387 28.7259 11.7387Z" fill="#E8318D"/>
<path d="M28.3832 16.191H28.1099C27.7324 16.191 27.4263 15.8849 27.4263 15.5074C27.4263 15.13 27.7324 14.8239 28.1099 14.8239H28.3832C28.7606 14.8239 29.0668 15.13 29.0668 15.5074C29.0668 15.8849 28.7608 16.191 28.3832 16.191Z" fill="#E8318D"/>
<path d="M26.499 20.6433H26.2256C25.8481 20.6433 25.542 20.3372 25.542 19.9597C25.542 19.5822 25.8481 19.2761 26.2256 19.2761H26.499C26.8765 19.2761 27.1826 19.5822 27.1826 19.9597C27.1826 20.3372 26.8765 20.6433 26.499 20.6433Z" fill="#E8318D"/>
<path d="M23.0721 24.3314H22.7988C22.4213 24.3314 22.1152 24.0253 22.1152 23.6478C22.1152 23.2703 22.4213 22.9642 22.7988 22.9642H23.0721C23.4496 22.9642 23.7557 23.2703 23.7557 23.6478C23.7557 24.0253 23.4496 24.3314 23.0721 24.3314Z" fill="#E8318D"/>
<path d="M5.92822 46.5443H5.65479C5.2773 46.5443 4.97119 46.2381 4.97119 45.8607C4.97119 45.4832 5.2773 45.1771 5.65479 45.1771H5.92822C6.3057 45.1771 6.61182 45.4832 6.61182 45.8607C6.61182 46.2381 6.3057 46.5443 5.92822 46.5443Z" fill="#E8318D"/>
<path d="M5.92822 42.0922H5.65479C5.2773 42.0922 4.97119 41.786 4.97119 41.4086C4.97119 41.0311 5.2773 40.725 5.65479 40.725H5.92822C6.3057 40.725 6.61182 41.0311 6.61182 41.4086C6.61182 41.786 6.3057 42.0922 5.92822 42.0922Z" fill="#E8318D"/>
<path d="M6.271 37.6398H5.99756C5.62008 37.6398 5.31396 37.3337 5.31396 36.9562C5.31396 36.5787 5.62008 36.2726 5.99756 36.2726H6.271C6.64848 36.2726 6.95459 36.5787 6.95459 36.9562C6.95459 37.3337 6.64848 37.6398 6.271 37.6398Z" fill="#E8318D"/>
<path d="M8.15514 33.1875H7.88184C7.50436 33.1875 7.19824 32.8814 7.19824 32.5039C7.19824 32.1264 7.50436 31.8203 7.88184 31.8203H8.15514C8.53262 31.8203 8.83873 32.1264 8.83873 32.5039C8.83873 32.8814 8.53275 33.1875 8.15514 33.1875Z" fill="#E8318D"/>
<path d="M11.582 29.4994H11.3086C10.9311 29.4994 10.625 29.1933 10.625 28.8158C10.625 28.4383 10.9311 28.1322 11.3086 28.1322H11.582C11.9595 28.1322 12.2656 28.4383 12.2656 28.8158C12.2656 29.1933 11.9595 29.4994 11.582 29.4994Z" fill="#E8318D"/>
<path d="M28.7259 46.5443H28.4526C28.0752 46.5443 27.769 46.2381 27.769 45.8607C27.769 45.4832 28.0752 45.1771 28.4526 45.1771H28.7259C29.1034 45.1771 29.4095 45.4832 29.4095 45.8607C29.4095 46.2381 29.1034 46.5443 28.7259 46.5443Z" fill="#E8318D"/>
<path d="M28.7259 42.0922H28.4526C28.0752 42.0922 27.769 41.786 27.769 41.4086C27.769 41.0311 28.0752 40.725 28.4526 40.725H28.7259C29.1034 40.725 29.4095 41.0311 29.4095 41.4086C29.4095 41.786 29.1034 42.0922 28.7259 42.0922Z" fill="#E8318D"/>
<path d="M28.3832 37.6398H28.1099C27.7324 37.6398 27.4263 37.3337 27.4263 36.9562C27.4263 36.5787 27.7324 36.2726 28.1099 36.2726H28.3832C28.7606 36.2726 29.0668 36.5787 29.0668 36.9562C29.0668 37.3337 28.7608 37.6398 28.3832 37.6398Z" fill="#E8318D"/>
<path d="M26.499 33.1875H26.2256C25.8481 33.1875 25.542 32.8814 25.542 32.5039C25.542 32.1264 25.8481 31.8203 26.2256 31.8203H26.499C26.8765 31.8203 27.1826 32.1264 27.1826 32.5039C27.1826 32.8814 26.8765 33.1875 26.499 33.1875Z" fill="#E8318D"/>
<path d="M23.0721 29.4994H22.7988C22.4213 29.4994 22.1152 29.1933 22.1152 28.8158C22.1152 28.4383 22.4213 28.1322 22.7988 28.1322H23.0721C23.4496 28.1322 23.7557 28.4383 23.7557 28.8158C23.7557 29.1933 23.4496 29.4994 23.0721 29.4994Z" fill="#E8318D"/>
<path d="M67.6039 31.0031V21.0065C67.6039 19.0909 66.0511 17.5379 64.1354 17.5379C62.2198 17.5379 60.6668 19.0908 60.6668 21.0065V31.0031C60.6668 35.3416 57.1497 38.8586 52.8112 38.8586C48.4728 38.8586 44.9557 35.3416 44.9557 31.0031V21.0065C44.9557 19.0909 43.4028 17.5379 41.4871 17.5379C39.5715 17.5379 38.0186 19.0908 38.0186 21.0065V31.0031C38.0186 35.3886 39.9282 39.3262 42.9604 42.0343C43.9896 42.9535 43.9896 44.5854 42.9604 45.5045C39.9282 48.2127 38.0186 52.1503 38.0186 56.5358V66.5324C38.0186 68.448 39.5714 70.001 41.4871 70.001C43.4027 70.001 44.9557 68.4481 44.9557 66.5324V56.5358C44.9557 52.1973 48.4728 48.6802 52.8112 48.6802C57.1497 48.6802 60.6668 52.1973 60.6668 56.5358V66.5324C60.6668 68.448 62.2197 70.001 64.1354 70.001C66.0509 70.001 67.6039 68.4481 67.6039 66.5324V56.5358C67.6039 52.1503 65.6942 48.2127 62.6621 45.5045C61.6329 44.5854 61.6329 42.9535 62.6621 42.0343C65.6942 39.3262 67.6039 35.3886 67.6039 31.0031Z" fill="#A2AEE6"/>
<path d="M62.662 45.5041C65.6949 48.2113 67.605 52.15 67.605 56.5344V66.5321C67.605 67.4886 67.217 68.3562 66.5893 68.9839C65.9615 69.6117 65.094 69.9996 64.1361 69.9996C63.6339 69.9996 63.157 69.8924 62.7254 69.7006C63.1161 69.5271 63.4689 69.2831 63.7679 68.9839C64.3957 68.3561 64.7836 67.4886 64.7836 66.5321V56.5344C64.7836 52.15 62.4978 48.2113 59.4647 45.5041C58.4363 44.5843 58.4363 42.9521 59.4647 42.0338C62.4976 39.3252 64.7836 35.3879 64.7836 31.0021V21.0058C64.7836 19.5922 63.9385 18.3762 62.7254 17.8359C63.157 17.6441 63.6339 17.5369 64.1361 17.5369C66.0518 17.5369 67.605 19.0902 67.605 21.0059V31.0022C67.605 35.3882 65.6949 39.3254 62.662 42.0339C61.6336 42.9521 61.6336 44.5843 62.662 45.5041Z" fill="#8795DE"/>
<path d="M41.5502 24.8232H41.2769C40.8992 24.8232 40.5933 24.5171 40.5933 24.1396C40.5933 23.7621 40.8992 23.456 41.2769 23.456H41.5502C41.9278 23.456 42.2337 23.7621 42.2337 24.1396C42.2337 24.5171 41.9278 24.8232 41.5502 24.8232Z" fill="#6175C9"/>
<path d="M41.5502 29.2755H41.2769C40.8992 29.2755 40.5933 28.9693 40.5933 28.5919C40.5933 28.2144 40.8992 27.9083 41.2769 27.9083H41.5502C41.9278 27.9083 42.2337 28.2144 42.2337 28.5919C42.2337 28.9693 41.9278 29.2755 41.5502 29.2755Z" fill="#6175C9"/>
<path d="M41.8921 33.7277H41.6187C41.241 33.7277 40.9351 33.4215 40.9351 33.0441C40.9351 32.6666 41.241 32.3605 41.6187 32.3605H41.8921C42.2697 32.3605 42.5757 32.6666 42.5757 33.0441C42.5757 33.4215 42.2697 33.7277 41.8921 33.7277Z" fill="#6175C9"/>
<path d="M43.7772 38.1801H43.5039C43.1263 38.1801 42.8203 37.8739 42.8203 37.4965C42.8203 37.119 43.1263 36.8129 43.5039 36.8129H43.7772C44.1548 36.8129 44.4608 37.119 44.4608 37.4965C44.4608 37.8739 44.1547 38.1801 43.7772 38.1801Z" fill="#6175C9"/>
<path d="M47.204 41.868H46.9307C46.553 41.868 46.2471 41.5619 46.2471 41.1844C46.2471 40.807 46.553 40.5009 46.9307 40.5009H47.204C47.5816 40.5009 47.8876 40.807 47.8876 41.1844C47.8876 41.5619 47.5816 41.868 47.204 41.868Z" fill="#6175C9"/>
<path d="M64.348 24.8232H64.0747C63.6971 24.8232 63.3911 24.5171 63.3911 24.1396C63.3911 23.7621 63.6971 23.456 64.0747 23.456H64.348C64.7256 23.456 65.0316 23.7621 65.0316 24.1396C65.0316 24.5171 64.7255 24.8232 64.348 24.8232Z" fill="#6175C9"/>
<path d="M64.348 29.2755H64.0747C63.6971 29.2755 63.3911 28.9693 63.3911 28.5919C63.3911 28.2144 63.6971 27.9083 64.0747 27.9083H64.348C64.7256 27.9083 65.0316 28.2144 65.0316 28.5919C65.0316 28.9693 64.7255 29.2755 64.348 29.2755Z" fill="#6175C9"/>
<path d="M64.0057 33.7277H63.7324C63.3548 33.7277 63.0488 33.4215 63.0488 33.0441C63.0488 32.6666 63.3548 32.3605 63.7324 32.3605H64.0057C64.3833 32.3605 64.6893 32.6666 64.6893 33.0441C64.6893 33.4215 64.3832 33.7277 64.0057 33.7277Z" fill="#6175C9"/>
<path d="M62.1214 38.1801H61.8481C61.4705 38.1801 61.1646 37.8739 61.1646 37.4965C61.1646 37.119 61.4705 36.8129 61.8481 36.8129H62.1214C62.4991 36.8129 62.805 37.119 62.805 37.4965C62.805 37.8739 62.4991 38.1801 62.1214 38.1801Z" fill="#6175C9"/>
<path d="M58.6942 41.868H58.4209C58.0433 41.868 57.7373 41.5619 57.7373 41.1844C57.7373 40.807 58.0433 40.5009 58.4209 40.5009H58.6942C59.0718 40.5009 59.3778 40.807 59.3778 41.1844C59.3778 41.5619 59.0718 41.868 58.6942 41.868Z" fill="#6175C9"/>
<path d="M41.5502 64.0811H41.2769C40.8992 64.0811 40.5933 63.775 40.5933 63.3975C40.5933 63.02 40.8992 62.7139 41.2769 62.7139H41.5502C41.9278 62.7139 42.2337 63.02 42.2337 63.3975C42.2337 63.775 41.9278 64.0811 41.5502 64.0811Z" fill="#6175C9"/>
<path d="M41.5502 59.6287H41.2769C40.8992 59.6287 40.5933 59.3226 40.5933 58.9451C40.5933 58.5676 40.8992 58.2615 41.2769 58.2615H41.5502C41.9278 58.2615 42.2337 58.5676 42.2337 58.9451C42.2337 59.3226 41.9278 59.6287 41.5502 59.6287Z" fill="#6175C9"/>
<path d="M41.8921 55.1765H41.6187C41.241 55.1765 40.9351 54.8704 40.9351 54.4929C40.9351 54.1154 41.241 53.8093 41.6187 53.8093H41.8921C42.2697 53.8093 42.5757 54.1154 42.5757 54.4929C42.5757 54.8704 42.2697 55.1765 41.8921 55.1765Z" fill="#6175C9"/>
<path d="M43.7772 50.7242H43.5039C43.1263 50.7242 42.8203 50.4181 42.8203 50.0406C42.8203 49.6632 43.1263 49.3571 43.5039 49.3571H43.7772C44.1548 49.3571 44.4608 49.6632 44.4608 50.0406C44.4608 50.4181 44.1547 50.7242 43.7772 50.7242Z" fill="#6175C9"/>
<path d="M47.204 47.0361H46.9307C46.553 47.0361 46.2471 46.73 46.2471 46.3525C46.2471 45.9751 46.553 45.6689 46.9307 45.6689H47.204C47.5816 45.6689 47.8876 45.9751 47.8876 46.3525C47.8876 46.73 47.5816 47.0361 47.204 47.0361Z" fill="#6175C9"/>
<path d="M64.348 64.0811H64.0747C63.6971 64.0811 63.3911 63.775 63.3911 63.3975C63.3911 63.02 63.6971 62.7139 64.0747 62.7139H64.348C64.7256 62.7139 65.0316 63.02 65.0316 63.3975C65.0316 63.775 64.7255 64.0811 64.348 64.0811Z" fill="#6175C9"/>
<path d="M64.348 59.6287H64.0747C63.6971 59.6287 63.3911 59.3226 63.3911 58.9451C63.3911 58.5676 63.6971 58.2615 64.0747 58.2615H64.348C64.7256 58.2615 65.0316 58.5676 65.0316 58.9451C65.0316 59.3226 64.7255 59.6287 64.348 59.6287Z" fill="#6175C9"/>
<path d="M64.0057 55.1765H63.7324C63.3548 55.1765 63.0488 54.8704 63.0488 54.4929C63.0488 54.1154 63.3548 53.8093 63.7324 53.8093H64.0057C64.3833 53.8093 64.6893 54.1154 64.6893 54.4929C64.6893 54.8704 64.3832 55.1765 64.0057 55.1765Z" fill="#6175C9"/>
<path d="M62.1214 50.7242H61.8481C61.4705 50.7242 61.1646 50.4181 61.1646 50.0406C61.1646 49.6632 61.4705 49.3571 61.8481 49.3571H62.1214C62.4991 49.3571 62.805 49.6632 62.805 50.0406C62.805 50.4181 62.4991 50.7242 62.1214 50.7242Z" fill="#6175C9"/>
<path d="M58.6942 47.0361H58.4209C58.0433 47.0361 57.7373 46.73 57.7373 46.3525C57.7373 45.9751 58.0433 45.6689 58.4209 45.6689H58.6942C59.0718 45.6689 59.3778 45.9751 59.3778 46.3525C59.3778 46.73 59.0718 47.0361 58.6942 47.0361Z" fill="#6175C9"/>
</g>
<defs>
<clipPath id="clip0">
<rect width="70" height="70" fill="white"/>
</clipPath>
</defs>
</svg>
