<svg width="48" height="47" viewBox="0 0 48 47" fill="none" xmlns="http://www.w3.org/2000/svg">
<g clip-path="url(#clip0)">
<path d="M44.3537 16.9502C43.4766 10.4752 38.7599 5.13012 32.8349 1.94729C32.5361 1.78706 32.234 1.63768 31.9278 1.49832C30.2003 0.715545 23.9991 0.246548 21.2919 0.155586C21.1951 0.153083 21.0966 0.138062 20.9998 0.138062C20.9523 0.138062 20.9039 0.142234 20.8563 0.143069C20.7136 0.139731 20.5817 0.138062 20.4733 0.138062L20.4783 0.156421C20.0919 0.173111 19.7055 0.201485 19.3208 0.254059C18.3586 0.385912 17.4106 0.626252 16.4868 0.963395C9.12054 3.64969 3.33402 9.97196 2.96434 17.8806C2.81579 21.0618 3.68869 24.2021 5.23588 26.986C7.15443 30.4384 10.6318 37.1712 10.4007 40.2398C10.3523 40.8765 10.3773 41.4815 10.535 42.0264C11.3637 44.8888 13.3415 46.8708 15.9928 46.8708C16.0962 46.8708 16.1914 46.8424 16.2915 46.8291L16.3007 46.8708H19.7038C20.5901 46.8708 21.3078 46.1523 21.3078 45.2669V38.6492C21.3078 37.8472 21.4763 37.0411 21.8811 36.3484C23.1178 34.2346 21.9211 32.5581 22.179 29.0581C22.3109 27.2697 24.9471 27.1571 25.1373 28.9404C25.1607 29.1566 25.1724 29.3761 25.1724 29.5997L23.243 42.7667C22.9292 44.6785 23.9832 46.4602 25.4929 46.7999L31.3219 46.8708C33.9723 46.8708 35.643 44.8888 36.4717 42.0264C36.5952 41.6008 36.6278 41.1419 36.6061 40.6637C36.4659 37.6569 40.1895 30.7305 42.1806 27.2581C43.9706 24.1345 44.8369 20.5185 44.3537 16.9502Z" fill="#445A66"/>
<path d="M19.3208 0.254059C18.3586 0.385912 17.4106 0.626252 16.4868 0.963395C9.12054 3.64969 3.33402 9.97196 2.96434 17.8806C2.81579 21.0618 3.68869 24.2021 5.23588 26.986C7.15443 30.4384 10.6318 37.1712 10.4007 40.2398C10.3523 40.8765 10.3773 41.4815 10.535 42.0264C11.3637 44.8888 13.3415 46.8708 15.9928 46.8708C17.7711 46.8708 19.1055 44.8897 18.7567 42.7667L16.8273 29.5997C16.8273 26.7941 18.6957 24.52 20.9998 24.52C23.3039 24.52 25.1724 26.7941 25.1724 29.5997L23.243 42.7667C22.8942 44.8897 24.2277 46.8708 26.0069 46.8708C28.6573 46.8708 30.636 44.8888 31.4646 42.0264C31.5881 41.6008 31.6207 41.1427 31.599 40.6637C31.4588 37.6578 35.1824 30.7305 37.1735 27.2581C38.9644 24.1345 39.8306 20.5177 39.3474 16.9502C38.4704 10.4752 33.7537 5.13012 27.8286 1.94729C27.5299 1.78706 27.2278 1.63768 26.9215 1.49832C24.9863 0.622914 22.9609 0.138062 20.9998 0.138062C20.4399 0.138062 19.8791 0.177284 19.3208 0.254059Z" fill="#FFD3B9"/>
<path d="M20.1649 13.5262V10.2415C15.3622 10.3734 9.94624 11.5016 4.09547 14.3248C3.9077 14.4158 3.70408 14.4208 3.51631 14.3699C3.21923 15.4998 3.02145 16.6689 2.9647 17.8806C2.96387 17.9074 2.96554 17.9341 2.96387 17.9608C9.22772 14.8672 15.0393 13.6555 20.1649 13.5262Z" fill="#FFA89C"/>
<path d="M20.1642 4.33813V0.167236C19.8822 0.18643 19.6009 0.215638 19.3197 0.254026C18.3575 0.385879 17.4095 0.626218 16.4857 0.963362C13.1226 2.1901 10.0958 4.18208 7.75586 6.73068C12.203 5.12842 16.3655 4.43661 20.1642 4.33813Z" fill="#FFA89C"/>
<path d="M5.80078 28.0175C6.27645 28.897 6.80136 29.8984 7.32544 30.9608C7.56745 30.844 7.85452 30.8323 8.10487 30.9791C10.1528 32.1792 13.4341 33.6921 17.4982 34.1787L17.0083 30.8339L16.7988 30.8122C13.0051 30.4234 9.31241 29.4804 5.80078 28.0175Z" fill="#FFA89C"/>
<path d="M20.165 6.0105C16.1577 6.11898 11.7314 6.90677 6.97555 8.80278C6.69766 8.91544 6.39891 8.85202 6.17275 8.68177C5.34158 9.86178 4.65144 11.1336 4.12402 12.4813C9.94559 9.79418 15.3507 8.69262 20.165 8.56661V6.0105Z" fill="#FFA89C"/>
<path d="M38.875 14.7052C38.7932 14.7311 38.7089 14.7486 38.623 14.7486C38.4869 14.7486 38.3484 14.7152 38.2207 14.6443C34.7058 12.7049 29.0236 10.385 21.8342 10.2397V13.5194C29.9507 13.6788 36.1645 16.4602 39.4658 18.3479C39.4475 17.8822 39.4099 17.4157 39.3473 16.9509C39.243 16.1848 39.0811 15.4371 38.875 14.7052Z" fill="#FFA89C"/>
<path d="M21.8342 8.56493C28.8224 8.70012 34.4546 10.8039 38.1782 12.7316C37.5807 11.3105 36.7962 9.96941 35.8607 8.72015C35.7155 8.83197 35.5394 8.89957 35.355 8.89957C35.2457 8.89957 35.1347 8.8787 35.0279 8.8328C31.6406 7.39243 27.1476 6.10895 21.8342 6.00214V8.56493Z" fill="#FFA89C"/>
<path d="M21.8342 4.32901C26.6327 4.42164 30.7902 5.43557 34.1233 6.67899C32.3207 4.80718 30.1718 3.20575 27.8277 1.94647C27.5289 1.78624 27.2269 1.63687 26.9206 1.4975C25.2591 0.744772 23.5316 0.303314 21.8342 0.187317V4.32901Z" fill="#FFA89C"/>
<path d="M23.4832 44.9605C23.9396 46.0779 24.8826 46.8707 26.0067 46.8707C28.456 46.8707 30.3178 45.1683 31.2425 42.6531C28.6697 43.8323 26.0643 44.6092 23.4832 44.9605Z" fill="#FFA89C"/>
<path d="M24.5596 35.6182C24.5087 35.6273 24.4595 35.6315 24.4102 35.6315C24.3693 35.6315 24.3318 35.6165 24.2917 35.6106L23.801 38.9604C26.5624 38.5181 29.3372 37.5759 32.0527 36.1481C32.2738 36.0321 32.5209 36.0329 32.737 36.1164C33.3253 34.6376 34.0764 33.052 34.8391 31.5566C31.4543 33.6295 28.002 34.9964 24.5596 35.6182Z" fill="#FFA89C"/>
<path d="M23.6736 40.6645C23.6327 40.6645 23.5952 40.6486 23.5551 40.6428L23.2439 42.7666C23.2138 42.9519 23.2113 43.133 23.2063 43.314C25.8509 42.9594 28.533 42.1299 31.1792 40.8431C31.3144 40.7771 31.4571 40.7646 31.5973 40.7738C31.5965 40.7362 31.6015 40.7012 31.599 40.6636C31.5665 39.9626 31.75 39.0422 32.0672 38.0082C29.3458 39.3484 26.5677 40.2422 23.798 40.6544C23.7554 40.6611 23.7137 40.6645 23.6736 40.6645Z" fill="#FFA89C"/>
<path d="M18.4739 40.8422C18.4338 40.8481 18.3971 40.8647 18.3554 40.8647C18.3345 40.8647 18.312 40.8639 18.2903 40.8622C15.5756 40.6519 12.8952 39.9785 10.3115 38.8711C10.395 39.3785 10.43 39.8408 10.4 40.2397C10.3649 40.7104 10.3699 41.1618 10.4375 41.5866C10.6145 41.5374 10.8047 41.5332 10.9866 41.61C13.5027 42.6865 16.1206 43.3157 18.7693 43.4801C18.7818 43.4809 18.7927 43.4885 18.8052 43.4893C18.8077 43.2515 18.7952 43.0103 18.7551 42.7658L18.4739 40.8422Z" fill="#FFA89C"/>
<path d="M25.2202 30.7529C25.1876 30.7571 25.1559 30.7588 25.1242 30.7588C25.0825 30.7588 25.0458 30.7429 25.0057 30.7371L24.54 33.9174C28.0842 33.2348 31.6526 31.7143 35.1492 29.3843C35.4146 29.2083 35.74 29.2133 36.0029 29.3535C36.3484 28.7184 36.6764 28.1326 36.9751 27.6077C33.088 29.24 29.139 30.3023 25.2202 30.7529Z" fill="#FFA89C"/>
<path d="M10.4412 37.1094C12.9589 38.2577 15.5784 38.947 18.2297 39.1749L17.7432 35.8518C17.7031 35.8577 17.6664 35.8735 17.6247 35.8735C17.5946 35.8735 17.5637 35.8719 17.5337 35.8685C14.3742 35.523 11.1997 34.5266 8.27979 32.9811C8.91402 34.3856 9.48065 35.7976 9.8712 37.0744C10.0548 37.0235 10.2542 37.0235 10.4412 37.1094Z" fill="#FFA89C"/>
<path d="M25.151 29.0789C29.1884 28.6016 33.2641 27.4566 37.2673 25.6699C37.501 25.5648 37.7505 25.5857 37.9641 25.6883C38.7603 23.9258 39.2651 22.0498 39.417 20.1371C39.2877 20.1304 39.1575 20.0971 39.039 20.027C36.0105 18.2353 29.9102 15.357 21.8347 15.1926V19.5137C21.8347 19.9752 21.4616 20.3482 21.0001 20.3482C20.5387 20.3482 20.1656 19.9752 20.1656 19.5137V15.201C15.1611 15.3337 9.47385 16.532 3.3335 19.6306C3.22668 19.684 3.11402 19.7107 3.0022 19.7174C3.1666 21.9355 3.79582 24.1027 4.78388 26.1106C5.00169 25.9979 5.26122 25.9712 5.5024 26.0788C8.90221 27.6043 12.4931 28.6074 16.1892 29.0639C16.316 28.9129 16.4963 28.806 16.7066 28.7752C16.7692 28.7652 16.8267 28.7793 16.8868 28.7835C17.2081 26.3676 18.9247 24.5208 21.0001 24.5208C23.1599 24.52 24.9365 26.5178 25.151 29.0789Z" fill="#FFA89C"/>
<path d="M11.0859 43.4317C12.0899 45.5096 13.8064 46.8707 15.9929 46.8707C17.0602 46.8707 17.9582 46.1505 18.438 45.1224C15.9403 44.943 13.4735 44.3672 11.0859 43.4317Z" fill="#FFA89C"/>
<path d="M20.9102 19.6281C17.9068 19.6281 15.4634 21.827 15.4634 24.53C15.4634 25.3144 15.672 26.0772 16.0642 26.7623C17.2885 25.1659 19.0418 24.222 20.9102 24.222C22.7787 24.222 24.5329 25.1659 25.7563 26.7623C26.1485 26.0763 26.3571 25.3144 26.3571 24.53C26.3571 21.827 23.9137 19.6281 20.9102 19.6281Z" fill="#FFD3B9"/>
</g>
<defs>
<clipPath id="clip0">
<rect width="46.7327" height="46.7327" fill="white" transform="translate(0.351318 0.138123)"/>
</clipPath>
</defs>
</svg>
