<svg width="51" height="51" viewBox="0 0 51 51" fill="none" xmlns="http://www.w3.org/2000/svg">
<path d="M40.6141 36.0698C38.511 31.991 37.8234 27.3289 38.6595 22.8168L42.3279 3.01784C42.6318 1.4818 41.4565 0.0510254 39.8907 0.0510254H11.2813C9.71558 0.0510254 8.54019 1.4818 8.84409 3.01784L12.5126 22.8168C13.3486 27.3289 12.661 31.991 10.558 36.0698C9.04599 39.0021 8.25708 42.2536 8.25708 45.5528V48.4231C8.25708 49.5991 9.21047 50.5525 10.3865 50.5525H40.7856C41.9616 50.5525 42.915 49.5991 42.915 48.4231V45.5528C42.915 42.2536 42.126 39.0021 40.6141 36.0698Z" fill="url(#paint0_linear)"/>
<path d="M42.9147 45.5528V48.4235C42.9147 49.5993 41.9615 50.5525 40.7857 50.5525H36.8228C37.9982 50.5525 38.9518 49.5989 38.9518 48.4235V45.5528C38.9518 42.2534 38.1626 39.0025 36.6505 36.0695C34.5483 31.9907 33.8601 27.3287 34.6958 22.8163L36.2214 14.5835C36.5053 13.0515 35.3295 11.6376 33.7714 11.6376H10.4412L9.98177 9.16109L8.844 3.01774C8.54 1.4819 9.7154 0.0510254 11.2809 0.0510254H39.8905C41.4561 0.0510254 42.6315 1.4819 42.3275 3.01774L41.1897 9.16109L40.7302 11.6376L38.6597 22.8163C37.8229 27.3287 38.5111 31.9907 40.6134 36.0695C42.1255 39.0025 42.9147 42.2534 42.9147 45.5528Z" fill="url(#paint1_linear)"/>
<path d="M10.1662 36.8873C9.8135 36.8873 9.47564 37.0902 9.30116 37.4105C7.96891 39.8557 6.47437 42.76 6.47437 45.5528V48.423C6.47437 49.599 7.52579 50.5524 8.82278 50.5524H42.3487C43.6457 50.5524 44.6971 49.599 44.6971 48.423V45.5528C44.6971 42.76 43.2026 39.8557 41.8704 37.4105C41.6959 37.0902 41.358 36.8873 41.0053 36.8873H10.1662Z" fill="url(#paint2_linear)"/>
<path d="M41.8707 37.4105C41.6962 37.0902 41.3583 36.8873 41.0056 36.8873H37.0427C37.3954 36.8873 37.7333 37.0902 37.9078 37.4105C39.2401 39.8557 40.7346 42.76 40.7346 45.5528V48.423C40.7346 49.599 39.6832 50.5524 38.3862 50.5524H42.349C43.646 50.5524 44.6975 49.599 44.6975 48.423V45.5528C44.6975 42.76 43.2029 39.8557 41.8707 37.4105Z" fill="url(#paint3_linear)"/>
<path d="M10.6276 9.16109H40.5443C41.2095 9.16109 41.7808 8.68866 41.9057 8.03541L42.8652 3.01784C43.1789 1.4818 41.9658 0.0510254 40.3498 0.0510254H10.8223C9.20621 0.0510254 7.99308 1.4818 8.30669 3.01784L9.26621 8.03541C9.39118 8.68866 9.96254 9.16109 10.6276 9.16109Z" fill="url(#paint4_linear)"/>
<path d="M40.3489 0.0510254H36.386C38.002 0.0510254 39.2152 1.4818 38.9015 3.01784L37.942 8.03541C37.8171 8.68866 37.2457 9.16109 36.5807 9.16109H40.5435C41.2087 9.16109 41.78 8.68866 41.9049 8.03541L42.8644 3.01784C43.178 1.4818 41.9649 0.0510254 40.3489 0.0510254V0.0510254Z" fill="url(#paint5_linear)"/>
<path d="M25.5857 32.2333C26.1326 32.2333 26.5759 31.4132 26.5759 30.4014C26.5759 29.3897 26.1326 28.5695 25.5857 28.5695C25.0388 28.5695 24.5955 29.3897 24.5955 30.4014C24.5955 31.4132 25.0388 32.2333 25.5857 32.2333Z" fill="url(#paint6_linear)"/>
<path d="M26.8248 50.5525V46.8932C26.8248 46.2093 26.2704 45.655 25.5864 45.655C24.9025 45.655 24.3481 46.2094 24.3481 46.8932V50.5525H26.8248Z" fill="url(#paint7_linear)"/>
<path d="M49.5545 27.6386L47.804 28.2169C47.2117 26.28 46.8802 23.8997 46.8802 21.3916C46.8802 18.465 47.3338 15.6809 48.1572 13.5521C48.4038 12.9146 48.0869 12.1977 47.4494 11.9511C46.812 11.7046 46.095 12.0213 45.8484 12.6589C44.9174 15.0656 44.4047 18.1669 44.4047 21.3915C44.4047 24.1437 44.7833 26.7907 45.461 28.9908L43.8895 29.5098C43.1758 29.7456 42.985 30.6654 43.546 31.1657L47.9991 35.1362C48.5601 35.6364 49.4522 35.3417 49.6048 34.6057L50.8168 28.7639C50.9694 28.0281 50.2682 27.4028 49.5545 27.6386Z" fill="url(#paint8_linear)"/>
<path d="M1.6193 27.6386L3.36982 28.2169C3.96217 26.28 4.2936 23.8997 4.2936 21.3916C4.2936 18.465 3.84008 15.6809 3.0166 13.5521C2.77004 12.9146 3.08691 12.1977 3.72442 11.9511C4.36183 11.7046 5.07885 12.0213 5.32541 12.6589C6.25642 15.0656 6.76916 18.1669 6.76916 21.3915C6.76916 24.1437 6.3906 26.7907 5.71289 28.9908L7.28438 29.5098C7.99803 29.7456 8.18885 30.6654 7.62788 31.1657L3.17474 35.1362C2.61378 35.6364 1.72169 35.3417 1.569 34.6057L0.357059 28.764C0.204366 28.0281 0.905644 27.4028 1.6193 27.6386Z" fill="url(#paint9_linear)"/>
<defs>
<linearGradient id="paint0_linear" x1="5.79409" y1="25.3018" x2="44.8709" y2="25.3018" gradientUnits="userSpaceOnUse">
<stop stop-color="#FFDCBD"/>
<stop offset="0.0028" stop-color="#FFDCBD"/>
<stop offset="1" stop-color="#FFA9B1"/>
</linearGradient>
<linearGradient id="paint1_linear" x1="6.37121" y1="25.3018" x2="44.8403" y2="25.3018" gradientUnits="userSpaceOnUse">
<stop stop-color="#FFC2B5"/>
<stop offset="0.2441" stop-color="#FFBBB3"/>
<stop offset="0.6097" stop-color="#FFA6AF"/>
<stop offset="1" stop-color="#FF89A8"/>
</linearGradient>
<linearGradient id="paint2_linear" x1="3.75808" y1="43.7199" x2="46.8542" y2="43.7199" gradientUnits="userSpaceOnUse">
<stop stop-color="#A79BA7"/>
<stop offset="0.7487" stop-color="#7A6D79"/>
<stop offset="1" stop-color="#685E68"/>
</linearGradient>
<linearGradient id="paint3_linear" x1="18.8526" y1="43.7199" x2="39.2585" y2="43.7199" gradientUnits="userSpaceOnUse">
<stop stop-color="#A79BA7"/>
<stop offset="0.7487" stop-color="#7A6D79"/>
<stop offset="1" stop-color="#685E68"/>
</linearGradient>
<linearGradient id="paint4_linear" x1="5.79409" y1="4.60606" x2="44.8709" y2="4.60606" gradientUnits="userSpaceOnUse">
<stop stop-color="#01D0FB"/>
<stop offset="0.6075" stop-color="#26A6FE"/>
<stop offset="1" stop-color="#0182FC"/>
</linearGradient>
<linearGradient id="paint5_linear" x1="10.1473" y1="4.60606" x2="38.518" y2="4.60606" gradientUnits="userSpaceOnUse">
<stop stop-color="#01D0FB"/>
<stop offset="0.6075" stop-color="#26A6FE"/>
<stop offset="1" stop-color="#0182FC"/>
</linearGradient>
<linearGradient id="paint6_linear" x1="22.615" y1="30.4014" x2="27.7983" y2="30.4014" gradientUnits="userSpaceOnUse">
<stop stop-color="#FFC2B5"/>
<stop offset="0.2441" stop-color="#FFBBB3"/>
<stop offset="0.6097" stop-color="#FFA6AF"/>
<stop offset="1" stop-color="#FF89A8"/>
</linearGradient>
<linearGradient id="paint7_linear" x1="13.1192" y1="48.1037" x2="29.1503" y2="48.1037" gradientUnits="userSpaceOnUse">
<stop stop-color="#A79BA7"/>
<stop offset="0.7487" stop-color="#7A6D79"/>
<stop offset="1" stop-color="#685E68"/>
</linearGradient>
<linearGradient id="paint8_linear" x1="42.3418" y1="23.626" x2="52.266" y2="23.626" gradientUnits="userSpaceOnUse">
<stop stop-color="#A2E62E"/>
<stop offset="0.7542" stop-color="#09A76D"/>
<stop offset="1" stop-color="#017B4E"/>
</linearGradient>
<linearGradient id="paint9_linear" x1="-1.44644" y1="23.626" x2="12.4591" y2="23.626" gradientUnits="userSpaceOnUse">
<stop stop-color="#A2E62E"/>
<stop offset="0.7542" stop-color="#09A76D"/>
<stop offset="1" stop-color="#017B4E"/>
</linearGradient>
</defs>
</svg>
