<svg width="47" height="52" viewBox="0 0 47 52" fill="none" xmlns="http://www.w3.org/2000/svg">
<path d="M18.2945 14.1184H14.7612V7.05194C14.7613 6.76109 14.8331 6.47475 14.9704 6.21834C15.1077 5.96194 15.3062 5.74339 15.5483 5.58212L23.498 0.282288L25.4572 3.22193L18.2945 7.99707V14.1184Z" fill="#F9E109"/>
<path d="M25.4581 3.22372L18.2945 7.99357V14.1149H14.7612V7.04843C14.7613 6.75817 14.8331 6.47243 14.9703 6.21662C15.1074 5.9608 15.3057 5.74285 15.5474 5.58215L16.4395 4.9815C17.1509 5.21645 17.9079 5.27891 18.6482 5.16373C19.3884 5.04854 20.0907 4.75901 20.697 4.31902L24.3981 1.62494L25.4581 3.22372Z" fill="#FCBC04"/>
<path d="M26.2443 51.514H6.81154L3.27832 20.5983H29.7775L26.2443 51.514Z" fill="#F8664F"/>
<path d="M5.04493 17.0651H28.0109C28.4794 17.0651 28.9287 17.2512 29.26 17.5825C29.5914 17.9138 29.7775 18.3631 29.7775 18.8317V20.5983H3.27832V18.8317C3.27832 18.3631 3.46445 17.9138 3.79575 17.5825C4.12705 17.2512 4.5764 17.0651 5.04493 17.0651Z" fill="#84D2F4"/>
<path d="M9.46143 13.5319H23.5943C24.0629 13.5319 24.5122 13.718 24.8435 14.0493C25.1748 14.3806 25.3609 14.8299 25.3609 15.2985V17.0651H7.69482V15.2985C7.69482 14.8299 7.88095 14.3806 8.21225 14.0493C8.54356 13.718 8.9929 13.5319 9.46143 13.5319Z" fill="#84D2F4"/>
<path d="M29.4772 23.2482H9.46146C14.5535 28.3398 21.2992 31.4416 28.479 31.993L26.2443 51.514H6.81154L3.27832 20.5983H29.7775L29.4772 23.2482Z" fill="#CC5144"/>
<path d="M29.7777 18.8317V20.5983H3.27856V18.8317C3.27996 18.3636 3.46654 17.915 3.79754 17.584C4.12854 17.253 4.57707 17.0665 5.04517 17.0651C5.04657 17.5332 5.23315 17.9817 5.56415 18.3127C5.89515 18.6437 6.34368 18.8303 6.81179 18.8317H29.7777Z" fill="#57B7EB"/>
<path d="M25.3612 15.2985V17.0651H7.69507V15.2985C7.69647 14.8304 7.88304 14.3818 8.21404 14.0508C8.54504 13.7198 8.99357 13.5333 9.46168 13.5319C9.46308 14 9.64965 14.4485 9.98065 14.7795C10.3117 15.1105 10.7602 15.2971 11.2283 15.2985H25.3612Z" fill="#57B7EB"/>
<path d="M35.0772 17.9484L33.3106 40.031L32.4272 49.7474L36.8438 50.6307L39.4937 18.8317L36.8438 17.4184L35.0772 17.9484Z" fill="#E59730"/>
<path d="M29.7773 22.3649L31.544 43.5642H36.8438L35.0772 21.4816L32.4273 18.8317L29.7773 22.3649Z" fill="#FCBC04"/>
<path d="M36.8438 43.5642H31.544L29.7773 22.3649L30.8196 20.9781L32.4273 33.8478H33.3106L34.2734 28.23L35.0772 27.6647L35.616 28.2035L36.8438 43.5642Z" fill="#E59730"/>
<path d="M28.0108 25.0148L25.3935 24.1156L24.4775 26.7814L28.8941 40.9143L33.0164 39.1477L28.0108 25.0148Z" fill="#F9E109"/>
<path d="M33.0191 39.1477L28.8941 40.9143L24.4775 26.7814L25.3785 24.1757L26.995 29.0338C27.938 31.87 29.6727 34.3771 31.9945 36.2593L33.0191 39.1477Z" fill="#FCBC04"/>
<path d="M43.9109 18.8317L40.3079 35.6145H43.9109L46.5608 23.2482L43.9109 18.8317Z" fill="#F9E109"/>
<path d="M43.7766 27.0685L45.1899 20.9578L43.9109 18.8317L40.3079 35.6145H43.9109L45.1148 29.9975C44.601 29.724 44.1916 29.289 43.9497 28.7596C43.7079 28.2302 43.647 27.6359 43.7766 27.0685Z" fill="#FCBC04"/>
<path d="M19.1777 24.1315L25.3609 40.9143L28.8941 40.031L22.711 24.1315H19.1777Z" fill="#F9E109"/>
<path d="M19.1777 24.1315L25.3609 40.9143L27.1275 40.4727L20.8189 24.1315H19.1777Z" fill="#FCBC04"/>
<path d="M38.6104 21.4816L35.9604 42.681L39.4937 41.7976L43.0269 23.2482L38.6104 21.4816Z" fill="#F9E109"/>
<path d="M41.013 33.8214L39.4937 41.7976L35.9604 42.681L38.6104 21.4816L40.324 22.1706L39.6173 32.0901C39.5898 32.5013 39.7181 32.9077 39.9767 33.2286C40.2354 33.5494 40.6053 33.761 41.013 33.8214Z" fill="#FCBC04"/>
<path d="M37.7271 43.5642H34.1938L35.0772 27.6647L38.6104 28.548L37.7271 43.5642Z" fill="#F9E109"/>
<path d="M36.607 35.232L36.8067 28.0976L35.0772 27.6647L34.1938 43.5642H37.7271L38.0742 37.669C37.6233 37.4443 37.2458 37.0957 36.9859 36.6641C36.726 36.2324 36.5946 35.7357 36.607 35.232Z" fill="#FCBC04"/>
<path d="M42.1437 32.0812C42.1437 35.4961 38.5848 38.2644 34.1939 38.2644C29.803 38.2644 26.2442 35.4961 26.2442 32.0812H21.8276L24.4776 51.514H43.9103L46.5602 32.0812H42.1437Z" fill="#84D2F4"/>
<path d="M44.3961 47.9807L43.9103 51.514H24.4776L21.8276 32.0812H26.2442C26.2595 32.8287 26.43 33.5648 26.7448 34.243C27.0595 34.9211 27.5117 35.5265 28.0726 36.0208C28.5895 39.3531 30.2815 42.3906 32.8427 44.5841C35.404 46.7776 38.6655 47.9824 42.0377 47.9807H44.3961Z" fill="#57B7EB"/>
<path d="M34.1939 47.9807C35.6574 47.9807 36.8438 46.7943 36.8438 45.3308C36.8438 43.8673 35.6574 42.6809 34.1939 42.6809C32.7304 42.6809 31.5439 43.8673 31.5439 45.3308C31.5439 46.7943 32.7304 47.9807 34.1939 47.9807Z" fill="#F9E109"/>
<path d="M36.3933 46.8059C36.0767 47.2771 35.6171 47.6341 35.0823 47.8245C34.5475 48.0148 33.9658 48.0283 33.4227 47.8631C32.8796 47.6979 32.4039 47.3627 32.0657 46.9068C31.7275 46.4509 31.5446 45.8985 31.544 45.3308C31.5422 44.79 31.7089 44.2621 32.0209 43.8204C33.2766 45.0829 34.7603 46.096 36.3933 46.8059Z" fill="#FCBC04"/>
<path d="M21.827 42.6809H5.92751C4.99044 42.6809 4.09175 42.3087 3.42914 41.6461C2.76654 40.9835 2.39429 40.0848 2.39429 39.1477C2.39429 38.2107 2.76654 37.312 3.42914 36.6494C4.09175 35.9868 4.99044 35.6145 5.92751 35.6145H21.827C22.7641 35.6145 23.6628 35.9868 24.3254 36.6494C24.988 37.312 25.3602 38.2107 25.3602 39.1477C25.3602 40.0848 24.988 40.9835 24.3254 41.6461C23.6628 42.3087 22.7641 42.6809 21.827 42.6809Z" fill="#F89C8D"/>
<path d="M23.5935 40.9143C24.0936 40.9139 24.5878 40.8054 25.0421 40.5963C24.8715 40.9884 24.6288 41.345 24.3266 41.6475C23.6621 42.3079 22.7637 42.6793 21.8269 42.6809H5.92736C5.22815 42.6815 4.5445 42.4746 3.96295 42.0864C3.38141 41.6982 2.92812 41.1462 2.66047 40.5002C2.39281 39.8543 2.32284 39.1434 2.4594 38.4577C2.59596 37.7719 2.93292 37.1421 3.42761 36.648C3.73009 36.3458 4.08665 36.1031 4.47874 35.9325C4.93308 35.7234 5.42722 35.6149 5.92736 35.6145H21.8269C22.6857 35.6157 23.5147 35.9297 24.1588 36.4978C24.5986 36.8777 24.9332 37.3644 25.1304 37.9111C24.9687 38.2028 24.7319 38.4459 24.4446 38.6152C24.1572 38.7845 23.8298 38.8738 23.4963 38.8739C23.2054 38.8738 22.9184 38.8074 22.6572 38.6796C22.3999 38.5489 22.1154 38.4808 21.8269 38.4808C21.5383 38.4808 21.2538 38.5489 20.9966 38.6796L19.1239 39.6159C18.8667 39.7465 18.5822 39.8146 18.2936 39.8146C18.0051 39.8146 17.7206 39.7465 17.4633 39.6159L15.5907 38.6796C15.3334 38.5489 15.049 38.4808 14.7604 38.4808C14.4719 38.4808 14.1874 38.5489 13.9301 38.6796L12.0575 39.6159C11.8002 39.7465 11.5157 39.8146 11.2272 39.8146C10.9386 39.8146 10.6542 39.7465 10.3969 39.6159L8.52428 38.6796C8.267 38.5489 7.98252 38.4808 7.69397 38.4808C7.40542 38.4808 7.12094 38.5489 6.86367 38.6796L5.44154 39.395C5.27736 39.4738 5.10574 39.5359 4.92923 39.5805C5.25938 39.9973 5.67966 40.3338 6.1585 40.5648C6.63735 40.7958 7.16232 40.9153 7.69397 40.9143H23.5935Z" fill="#F8664F"/>
<path d="M0.627686 46.2142H27.1268V47.9808C27.1268 48.9179 26.7546 49.8165 26.092 50.4791C25.4294 51.1418 24.5307 51.514 23.5936 51.514H4.16091C3.22384 51.514 2.32515 51.1418 1.66254 50.4791C0.999934 49.8165 0.627686 48.9179 0.627686 47.9808V46.2142Z" fill="#FCBC04"/>
<path d="M16.3505 46.2142L15.6439 47.0975L14.9373 46.2142H16.3505Z" fill="#E59730"/>
<path d="M16.3505 46.2142L15.6439 47.0975L14.9373 46.2142H16.3505Z" fill="#E59730"/>
<path d="M23.5936 46.2141H4.1609C3.69236 46.2141 3.24302 46.028 2.91172 45.6967C2.58041 45.3654 2.39429 44.9161 2.39429 44.4475C2.39429 43.979 2.58041 43.5296 2.91172 43.1983C3.24302 42.867 3.69236 42.6809 4.1609 42.6809H23.5936C24.0621 42.6809 24.5115 42.867 24.8428 43.1983C25.1741 43.5296 25.3602 43.979 25.3602 44.4475C25.3602 44.9161 25.1741 45.3654 24.8428 45.6967C24.5115 46.028 24.0621 46.2141 23.5936 46.2141Z" fill="#CC5144"/>
<path d="M16.5271 47.0974L12.9939 42.6809H20.0603L16.5271 47.0974Z" fill="#F7F754"/>
<path d="M16.2241 43.6278L15.4672 42.6809H12.9939L16.5271 47.0974L18.5278 44.5968C18.0936 44.6393 17.6556 44.573 17.2534 44.4038C16.8512 44.2346 16.4974 43.9679 16.2241 43.6278Z" fill="#F9E109"/>
<path d="M1.51099 35.6145C1.51086 36.1453 1.65865 36.6657 1.93777 37.1172C2.2169 37.5688 2.61632 37.9336 3.09122 38.1708L3.76607 38.5082C4.16284 38.7069 4.60047 38.8103 5.04421 38.8103C5.48794 38.8103 5.92557 38.7069 6.32235 38.5082L7.74359 37.8016C8.00251 37.6722 8.28798 37.6048 8.57743 37.6048C8.86687 37.6048 9.15235 37.6722 9.41127 37.8016L11.2768 38.7343C11.5357 38.8637 11.8212 38.9311 12.1107 38.9311C12.4001 38.9311 12.6856 38.8637 12.9445 38.7343L14.81 37.8016C15.069 37.6722 15.3544 37.6048 15.6439 37.6048C15.9333 37.6048 16.2188 37.6722 16.4777 37.8016L18.3433 38.7343C18.6022 38.8637 18.8876 38.9311 19.1771 38.9311C19.4665 38.9311 19.752 38.8637 20.0109 38.7343L21.8765 37.8016C22.1354 37.6722 22.4209 37.6048 22.7103 37.6048C22.9998 37.6048 23.2852 37.6722 23.5442 37.8016C23.8288 37.9438 24.145 38.0108 24.4628 37.9964C24.7807 37.9819 25.0895 37.8864 25.36 37.7189C25.6305 37.5514 25.8537 37.3176 26.0083 37.0395C26.163 36.7615 26.2439 36.4485 26.2435 36.1304V35.6145H1.51099Z" fill="#C4F236"/>
<path d="M18.294 26.7814H9.46098C7.11831 26.7814 4.87159 27.7121 3.21507 29.3686C1.55855 31.0251 0.62793 33.2718 0.62793 35.6145H27.1271C27.1271 33.2718 26.1965 31.0251 24.5399 29.3686C22.8834 27.7121 20.6367 26.7814 18.294 26.7814Z" fill="#FCBC04"/>
<path d="M27.1268 35.6145H0.627686C0.628494 33.6851 1.26103 31.809 2.42862 30.2729C3.59621 28.7369 5.23462 27.6254 7.09348 27.1083C7.55254 28.79 8.55169 30.2743 9.93708 31.3325C11.3225 32.3907 13.0173 32.9641 14.7606 32.9646H26.7205C26.9912 33.8218 27.1283 34.7156 27.1268 35.6145Z" fill="#E59730"/>
<path d="M27.1268 47.9808C27.1268 48.9179 26.7546 49.8165 26.092 50.4791C25.4294 51.1418 24.5307 51.514 23.5936 51.514H4.16091C3.22384 51.514 2.32515 51.1418 1.66254 50.4791C0.999934 49.8165 0.627686 48.9179 0.627686 47.9808V46.2142H2.50913C2.70374 46.9728 3.14535 47.645 3.76431 48.1248C4.38328 48.6046 5.14436 48.8647 5.92752 48.8641H24.4769C25.4331 48.8679 26.3642 48.5576 27.1268 47.9808Z" fill="#E59730"/>
<path d="M26.2435 35.6145V36.1268C26.2474 36.252 26.2325 36.377 26.1994 36.4978H3.01262C3.26808 36.8311 3.59774 37.1003 3.97543 37.2839L4.64674 37.6284C5.04522 37.8245 5.48341 37.9265 5.92753 37.9265C6.37165 37.9265 6.80984 37.8245 7.20832 37.6284L8.63044 36.913C8.88772 36.7823 9.1722 36.7142 9.46075 36.7142C9.7493 36.7142 10.0338 36.7823 10.2911 36.913L12.1637 37.8493C12.4209 37.9799 12.7054 38.048 12.994 38.048C13.2825 38.048 13.567 37.9799 13.8243 37.8493L15.6969 36.913C15.9542 36.7823 16.2386 36.7142 16.5272 36.7142C16.8157 36.7142 17.1002 36.7823 17.3575 36.913L19.2301 37.8493C19.4874 37.9799 19.7719 38.048 20.0604 38.048C20.349 38.048 20.6334 37.9799 20.8907 37.8493L22.7633 36.913C23.0206 36.7823 23.3051 36.7142 23.5936 36.7142C23.8822 36.7142 24.1667 36.7823 24.4239 36.913C24.6787 37.0405 24.9595 37.1077 25.2444 37.1092C25.5293 37.1107 25.8108 37.0466 26.0669 36.9218C25.9153 37.2411 25.6764 37.5109 25.3778 37.7C25.0792 37.8892 24.7332 37.9899 24.3798 37.9906C24.0889 37.9905 23.8019 37.9241 23.5406 37.7963C23.2834 37.6656 22.9989 37.5975 22.7103 37.5975C22.4218 37.5975 22.1373 37.6656 21.88 37.7963L20.0074 38.7326C19.7501 38.8632 19.4657 38.9313 19.1771 38.9313C18.8886 38.9313 18.6041 38.8632 18.3468 38.7326L16.4742 37.7963C16.2169 37.6656 15.9324 37.5975 15.6439 37.5975C15.3553 37.5975 15.0709 37.6656 14.8136 37.7963L12.941 38.7326C12.6837 38.8632 12.3992 38.9313 12.1107 38.9313C11.8221 38.9313 11.5376 38.8632 11.2804 38.7326L9.40775 37.7963C9.15048 37.6656 8.866 37.5975 8.57745 37.5975C8.28889 37.5975 8.00442 37.6656 7.74714 37.7963L6.32502 38.5117C5.92653 38.7078 5.48834 38.8098 5.04422 38.8098C4.60011 38.8098 4.16192 38.7078 3.76343 38.5117L3.09212 38.1673C2.61603 37.9324 2.21543 37.5687 1.9359 37.1174C1.65638 36.6661 1.50916 36.1454 1.511 35.6145H26.2435Z" fill="#A1D51C"/>
<path d="M15.6438 31.1979C16.1316 31.1979 16.5271 30.8025 16.5271 30.3146C16.5271 29.8268 16.1316 29.4313 15.6438 29.4313C15.156 29.4313 14.7605 29.8268 14.7605 30.3146C14.7605 30.8025 15.156 31.1979 15.6438 31.1979Z" fill="#F9E109"/>
<path d="M12.1106 30.3146C12.5984 30.3146 12.9939 29.9192 12.9939 29.4313C12.9939 28.9435 12.5984 28.548 12.1106 28.548C11.6228 28.548 11.2273 28.9435 11.2273 29.4313C11.2273 29.9192 11.6228 30.3146 12.1106 30.3146Z" fill="#F9E109"/>
<path d="M9.4607 32.0812C9.94853 32.0812 10.344 31.6858 10.344 31.1979C10.344 30.7101 9.94853 30.3146 9.4607 30.3146C8.97286 30.3146 8.57739 30.7101 8.57739 31.1979C8.57739 31.6858 8.97286 32.0812 9.4607 32.0812Z" fill="#F9E109"/>
<path d="M22.7102 32.0812C23.198 32.0812 23.5935 31.6858 23.5935 31.1979C23.5935 30.7101 23.198 30.3146 22.7102 30.3146C22.2224 30.3146 21.8269 30.7101 21.8269 31.1979C21.8269 31.6858 22.2224 32.0812 22.7102 32.0812Z" fill="#F9E109"/>
<path d="M5.92823 31.1979C6.41606 31.1979 6.81153 30.8025 6.81153 30.3146C6.81153 29.8268 6.41606 29.4313 5.92823 29.4313C5.44039 29.4313 5.04492 29.8268 5.04492 30.3146C5.04492 30.8025 5.44039 31.1979 5.92823 31.1979Z" fill="#FCBC04"/>
<path d="M19.1777 30.3146C19.6656 30.3146 20.061 29.9192 20.061 29.4313C20.061 28.9435 19.6656 28.548 19.1777 28.548C18.6899 28.548 18.2944 28.9435 18.2944 29.4313C18.2944 29.9192 18.6899 30.3146 19.1777 30.3146Z" fill="#F9E109"/>
<path d="M10.2645 31.569C10.1807 31.7529 10.0364 31.9026 9.85555 31.9929C9.67474 32.0833 9.46841 32.1089 9.27099 32.0655C9.07358 32.0221 8.89702 31.9123 8.7708 31.7544C8.64457 31.5965 8.57631 31.4001 8.57741 31.198C8.57884 31.0536 8.61488 30.9117 8.6825 30.7841C8.75013 30.6565 8.84737 30.5471 8.96606 30.4648H8.97489C9.36263 30.8794 9.79515 31.2497 10.2645 31.569Z" fill="#FCBC04"/>
</svg>
