<svg width="61" height="51" viewBox="0 0 61 51" fill="none" xmlns="http://www.w3.org/2000/svg">
<path d="M44.0656 50.397H16.9076C7.7556 50.397 0.336426 42.9778 0.336426 33.8258V6.5816C0.336426 3.07099 3.1822 0.22522 6.69281 0.22522H54.2805C57.791 0.22522 60.6367 3.07099 60.6367 6.5816V33.8259C60.6367 42.9778 53.2176 50.397 44.0656 50.397Z" fill="#E0E0E0"/>
<path d="M54.2773 0.22522H50.6375C54.15 0.22522 56.9976 3.06934 56.9976 6.57783V33.8355C56.9976 42.9821 49.574 50.397 40.4167 50.397H44.0566C53.214 50.397 60.6374 42.9821 60.6374 33.8355V6.57783C60.6374 3.06934 57.7898 0.22522 54.2773 0.22522Z" fill="#BDBDBD"/>
<path d="M3.97607 33.8279V6.57948C3.97607 5.07798 5.19327 3.8609 6.69465 3.8609H54.2779C55.7794 3.8609 56.9965 5.0781 56.9965 6.57948V33.8279C56.9965 40.9708 51.206 46.7613 44.0632 46.7613H16.9095C9.76655 46.7613 3.97607 40.9708 3.97607 33.8279Z" fill="#FFD54F"/>
<path d="M54.2772 3.86078H50.6374C52.1397 3.86078 53.3576 5.07727 53.3576 6.57783V33.8354C53.3576 40.9742 47.5639 46.7613 40.4167 46.7613H44.0566C51.2036 46.7613 56.9974 40.9742 56.9974 33.8354V6.57783C56.9974 5.07727 55.7795 3.86078 54.2772 3.86078Z" fill="#FFC328"/>
<path d="M40.4168 16.4542H20.558C20.0112 16.4542 19.5679 16.0109 19.5679 15.464V11.6015C19.5679 9.32306 21.4149 7.47589 23.6935 7.47589H37.2814C39.5599 7.47589 41.4071 9.32294 41.4071 11.6015V15.464C41.4069 16.0109 40.9636 16.4542 40.4168 16.4542Z" fill="#BBF7FF"/>
<path d="M30.4874 38.8999C29.4824 38.8999 28.6675 38.0851 28.6675 37.0799V24.4619C28.6675 23.4568 29.4822 22.6419 30.4874 22.6419C31.4925 22.6419 32.3074 23.4567 32.3074 24.4619V37.0801C32.3074 38.0851 31.4925 38.8999 30.4874 38.8999Z" fill="#546E7A"/>
<path d="M30.0967 13.0139L26.7495 9.6668C26.4046 9.32184 25.8453 9.32184 25.5004 9.6668C25.1555 10.0118 25.1555 10.5711 25.5004 10.9159L28.8476 14.263C29.02 14.4355 29.2461 14.5218 29.4721 14.5218C29.6981 14.5218 29.9242 14.4356 30.0967 14.263C30.4417 13.9182 30.4417 13.3589 30.0967 13.0139Z" fill="#F74F68"/>
<path d="M32.4297 16.4542H28.5471V14.7555C28.5471 13.6834 29.4163 12.8143 30.4884 12.8143C31.5605 12.8143 32.4297 13.6834 32.4297 14.7555V16.4542Z" fill="#546E7A"/>
<path d="M37.2816 6.59247H23.6935C20.9316 6.59247 18.6846 8.83948 18.6846 11.6014V15.4639C18.6846 16.4969 19.525 17.3373 20.558 17.3373H40.4171C41.4501 17.3373 42.2904 16.4969 42.2904 15.4639V11.6014C42.2904 8.83948 40.0435 6.59247 37.2816 6.59247ZM40.5238 15.464C40.5238 15.5229 40.476 15.5709 40.4171 15.5709H20.5581C20.4992 15.5709 20.4513 15.5229 20.4513 15.464V11.6015C20.4513 9.8137 21.9058 8.3592 23.6936 8.3592H37.2816C39.0694 8.3592 40.5238 9.8137 40.5238 11.6015V15.464Z" fill="#546E7A"/>
</svg>
