<svg width="45" height="57" viewBox="0 0 45 57" fill="none" xmlns="http://www.w3.org/2000/svg">
<path d="M44.1429 5.87603V31.6704C44.1429 36.6734 40.0865 40.7299 35.0834 40.7299H33.0102L23.2405 35.6407L13.9582 40.7299H9.93327C4.93024 40.7299 0.873779 36.6735 0.873779 31.6704V5.87603C0.873779 3.06756 3.15165 0.789795 5.96124 0.789795H39.0555C41.865 0.789795 44.1429 3.06756 44.1429 5.87603Z" fill="white"/>
<path d="M33.0113 31.2713V40.7298H13.9592V31.2713C13.9592 30.6 14.5033 30.0559 15.1746 30.0559H31.7948C32.4672 30.0559 33.0113 30.6 33.0113 31.2713Z" fill="#D4CFD5"/>
<path d="M35.2205 22.4811H11.6576C10.6278 22.4811 9.79297 21.6464 9.79297 20.6165V7.24511C9.79297 6.21523 10.6278 5.38043 11.6576 5.38043H35.2205C36.2504 5.38043 37.0852 6.21523 37.0852 7.24511V20.6165C37.0852 21.6464 36.2504 22.4811 35.2205 22.4811Z" fill="#A6E7F0"/>
<path d="M25.9513 30.0559V55.893C25.9513 56.2662 25.6499 56.5676 25.2767 56.5676H21.6914C21.3193 56.5676 21.0168 56.2662 21.0168 55.893V30.0559H25.9513Z" fill="white"/>
<path d="M21.0168 37.0568H25.9513V44.1724H21.0168V37.0568Z" fill="#E27F86"/>
<path d="M25.3488 16.5866C25.1344 18.1553 23.689 19.253 22.1206 19.0383C20.552 18.8239 19.4542 17.3785 19.6686 15.8098C19.7116 15.4957 19.8039 15.2005 19.9366 14.9309L19.9369 14.9305L22.3781 8.90018C22.4345 8.76119 22.6315 8.76186 22.6868 8.90129L25.0602 14.8911L25.0606 14.8915C25.3193 15.3963 25.4316 15.9821 25.3488 16.5866Z" fill="#E27F86"/>
<path d="M12.744 40.7298H9.93327C4.93024 40.7298 0.873779 36.6734 0.873779 31.6703V5.87603C0.873779 3.06756 3.15165 0.789795 5.96124 0.789795H8.77192C5.96234 0.789795 3.68447 3.06756 3.68447 5.87603V31.6704C3.68447 36.6734 7.74093 40.7298 12.744 40.7298Z" fill="#EEEEEE"/>
<path d="M12.6398 22.4817H9.82915C8.78244 22.4817 7.93359 21.6328 7.93359 20.5861V7.27464C7.93359 6.22904 8.78244 5.38019 9.82915 5.38019H12.6398C11.5931 5.38019 10.7443 6.22904 10.7443 7.27464V20.5861C10.7443 21.6328 11.5931 22.4817 12.6398 22.4817Z" fill="#6BD9E7"/>
<path d="M17.9853 30.0559C17.314 30.0559 16.7699 30.6 16.7699 31.2713V40.7298H13.9592V31.2713C13.9592 30.6 14.5033 30.0559 15.1746 30.0559H17.9853Z" fill="#C5BEC6"/>
<path d="M33.8716 26.9837H11.1471C10.6887 26.9837 10.3171 26.6122 10.3171 26.1538C10.3171 25.6953 10.6887 25.3239 11.1471 25.3239H33.8716C34.3299 25.3239 34.7015 25.6953 34.7015 26.1538C34.7015 26.6122 34.3299 26.9837 33.8716 26.9837Z" fill="#E1DEE2"/>
</svg>
