<svg width="42" height="51" viewBox="0 0 42 51" fill="none" xmlns="http://www.w3.org/2000/svg">
<path d="M23.7007 4.77759H25.4291V8.23446H23.7007V4.77759Z" fill="#008100"/>
<path d="M27.5647 10.7968L26.5215 18.6206C26.3907 19.6011 25.5543 20.3334 24.565 20.3334C23.5756 20.3334 22.7392 19.6011 22.6084 18.6206L21.5653 10.7968C21.3433 9.14107 22.5056 7.61897 24.1614 7.39697C24.2951 7.37904 24.43 7.37007 24.565 7.37018C26.2355 7.36921 27.5905 8.72268 27.5914 10.3932C27.5916 10.5281 27.5826 10.6631 27.5647 10.7968Z" fill="#FF8800"/>
<path d="M34.9348 24.6546H36.6632V28.1115H34.9348V24.6546Z" fill="#008100"/>
<path d="M23.7007 30.7041H28.0218V35.0252H23.7007V30.7041Z" fill="#FADBB7"/>
<path d="M7.28003 41.9389H34.935V50.5811H7.28003V41.9389Z" fill="#E47700"/>
<path d="M34.9354 41.9389L40.9538 35.9205C41.5269 35.3475 41.849 34.5704 41.8491 33.76C41.8491 32.0723 40.481 30.7041 38.7932 30.7041C37.9828 30.7042 37.2057 31.0263 36.6327 31.5994L26.2932 41.9389H34.9354Z" fill="#A65A14"/>
<path d="M37.5276 33.2968H39.256V35.0252H37.5276V33.2968Z" fill="#7C440F"/>
<path d="M34.0708 36.7536H35.7992V38.482H34.0708V36.7536Z" fill="#7C440F"/>
<path d="M0.366699 35.3829V35.5316C0.366699 37.1611 1.68765 38.482 3.31714 38.482H4.33C5.95948 38.482 7.28044 37.1611 7.28044 35.5316V35.3829C7.28044 34.6005 6.96953 33.85 6.41622 33.2967C5.8629 32.7434 5.552 31.9929 5.552 31.2105C5.552 30.4535 4.9383 29.8398 4.18135 29.8398H3.46578C2.70884 29.8398 2.09513 30.4535 2.09513 31.2105C2.09513 31.9929 1.78423 32.7434 1.23092 33.2967C0.677601 33.85 0.366699 34.6005 0.366699 35.3829Z" fill="#33BC00"/>
<path d="M13.3306 37.6178V38.482C13.3306 40.3912 14.8783 41.9389 16.7874 41.9389H17.6517C18.1289 41.9389 18.5159 41.552 18.5159 41.0747V40.2105C18.5159 38.3013 16.9682 36.7536 15.059 36.7536H14.1948C13.7175 36.7536 13.3306 37.1406 13.3306 37.6178Z" fill="#A65A14"/>
<path d="M11.9154 23.939L15.6687 20.1857C16.1271 19.7272 16.3844 19.1055 16.3843 18.4573C16.3847 17.1075 15.291 16.0128 13.9412 16.0124C13.9408 16.0124 13.9406 16.0124 13.9403 16.0124H12.9283C12.9283 14.1032 11.3806 12.5555 9.47143 12.5555H8.60721L8.1751 12.1234C6.98173 10.9304 5.04739 10.9304 3.85402 12.1234C2.66097 13.3168 2.66097 15.2511 3.85402 16.4445L4.28613 16.8766V17.7408C4.28613 19.65 5.83383 21.1977 7.74299 21.1977V22.2106C7.74299 23.5604 8.8372 24.6546 10.187 24.6546C10.8353 24.6547 11.457 24.3974 11.9154 23.939Z" fill="#008100"/>
<path d="M23.7008 27.2472H22.4044C21.2112 27.2472 20.2439 28.2145 20.2439 29.4078C20.2439 30.601 21.2112 31.5683 22.4044 31.5683H29.3182C30.5114 31.5683 31.4787 30.601 31.4787 29.4078C31.4787 28.2145 30.5114 27.2472 29.3182 27.2472H28.0219V26.383C28.0219 25.1897 27.0546 24.2225 25.8613 24.2225C24.668 24.2225 23.7008 25.1897 23.7008 26.383V27.2472Z" fill="#FCE9CC"/>
<path d="M9.87256 32.4325V31.5683C9.87256 29.6592 11.4203 28.1115 13.3294 28.1115H14.1936C14.6709 28.1115 15.0579 28.4984 15.0579 28.9757V29.8399C15.0579 31.749 13.5102 33.2968 11.601 33.2968H10.7368C10.2595 33.2968 9.87256 32.9098 9.87256 32.4325Z" fill="#FDB62F"/>
<path d="M39.2561 17.0495V16.8766C37.624 16.8766 36.0871 17.645 35.1079 18.9508C34.4347 19.8484 34.0708 20.94 34.0708 22.0619V23.7904C34.0708 24.745 34.8446 25.5188 35.7992 25.5188C36.7539 25.5188 37.5277 24.745 37.5277 23.7904V22.7533C37.5281 21.7383 37.8288 20.746 38.3919 19.9014C38.9549 19.0569 39.2557 18.0645 39.2561 17.0495Z" fill="#FF421D"/>
<path d="M24.5642 9.96289H21.5809C21.5363 10.2387 21.5305 10.5194 21.5636 10.7969L21.6838 11.6913H24.5642V9.96289Z" fill="#FF6536"/>
<path d="M24.564 15.1482H26.9838L27.1566 13.8518V13.4197H24.564V15.1482Z" fill="#FF6536"/>
<path d="M32.3424 12.5555H33.2067C34.1613 12.5555 34.9351 13.3293 34.9351 14.2839C34.9351 15.2386 34.1613 16.0123 33.2067 16.0123H32.3424C31.3878 16.0123 30.614 15.2386 30.614 14.2839C30.614 13.3293 31.3878 12.5555 32.3424 12.5555Z" fill="#FDB62F"/>
<path d="M15.9233 9.09863H16.7875C17.7421 9.09863 18.5159 9.87243 18.5159 10.8271C18.5159 11.7817 17.7421 12.5555 16.7875 12.5555H15.9233C14.9686 12.5555 14.1948 11.7817 14.1948 10.8271C14.1948 9.87243 14.9686 9.09863 15.9233 9.09863Z" fill="#6CBBC7"/>
<path d="M9.72534 19.2156L10.9476 17.9934L17.8615 24.9074L16.6393 26.1296L9.72534 19.2156Z" fill="#025902"/>
<path d="M13.5034 5.64178H13.3306C13.3306 4.00971 14.099 2.47281 15.4047 1.49354C16.3023 0.820425 17.3939 0.456482 18.5159 0.456482H20.2443C21.1989 0.456482 21.9727 1.23028 21.9727 2.18492C21.9727 3.13955 21.1989 3.91335 20.2443 3.91335H19.2072C18.1922 3.91378 17.1999 4.21453 16.3553 4.77757C15.5108 5.3406 14.5184 5.64135 13.5034 5.64178Z" fill="#FDB62F"/>
</svg>
