<svg width="51" height="50" viewBox="0 0 51 50" fill="none" xmlns="http://www.w3.org/2000/svg">
<g clip-path="url(#clip0)">
<path d="M40.1348 29.9717L42.0559 26.1303C43.4563 23.3295 43.4563 20.0321 42.0559 17.2314L40.1348 13.3893V0.952454H10.2864V13.3893L8.36525 17.2305C6.96484 20.0313 6.96484 23.3288 8.36525 26.1295L10.2864 29.9716L8.44074 34.2167C6.97407 37.5904 6.97407 41.4218 8.44074 44.7955L10.2864 49.0414H40.1348L41.9804 44.7963C43.447 41.4226 43.447 37.5912 41.9804 34.2175L40.1348 29.9717Z" fill="#FDC9A6"/>
<path d="M26.0401 17.5349H24.3818V19.1931H26.0401V17.5349Z" fill="#F6BB92"/>
<path d="M1.16622 15.0473L4.48268 15.0473C4.94031 15.0473 5.31177 15.4179 5.31177 15.8764C5.31177 16.3349 4.94031 16.7055 4.48268 16.7055L1.16622 16.7055C0.708582 16.7055 0.337129 16.3349 0.337129 15.8764C0.337129 15.418 0.708485 15.0473 1.16622 15.0473Z" fill="#EA9D2D"/>
<path d="M2.82537 12.5599C3.03767 12.5599 3.24987 12.6412 3.41155 12.8028L5.89892 15.2902C6.22315 15.6144 6.22315 16.1384 5.89892 16.4626L3.41155 18.9499C3.08732 19.2742 2.56332 19.2742 2.23918 18.9499C1.91495 18.6257 1.91495 18.1017 2.23918 17.7776L4.14037 15.8764L2.23918 13.9752C1.91495 13.651 1.91495 13.127 2.23918 12.8028C2.40076 12.6412 2.61306 12.5599 2.82537 12.5599Z" fill="#EA9D2D"/>
<path d="M45.9394 15.0473L49.2559 15.0473C49.7135 15.0473 50.085 15.4179 50.085 15.8764C50.085 16.3349 49.7135 16.7055 49.2559 16.7055L45.9394 16.7055C45.4818 16.7055 45.1103 16.3349 45.1103 15.8764C45.1102 15.418 45.4817 15.0473 45.9394 15.0473Z" fill="#EA9D2D"/>
<path d="M47.5981 12.5599C47.8104 12.5599 48.0226 12.6412 48.1843 12.8028C48.5085 13.1271 48.5085 13.6511 48.1843 13.9752L46.2831 15.8764L48.1843 17.7776C48.5085 18.1018 48.5085 18.6258 48.1843 18.9499C47.8601 19.2742 47.3361 19.2742 47.0119 18.9499L44.5246 16.4626C44.2004 16.1383 44.2004 15.6143 44.5246 15.2902L47.0119 12.8028C47.1736 12.6412 47.3859 12.5599 47.5981 12.5599Z" fill="#EA9D2D"/>
<path d="M25.2107 44.0669C25.2107 42.8215 25.0481 41.7992 24.7273 40.5953V40.5944C23.0566 34.3305 17.3829 29.9717 10.9 29.9717H10.2865L8.62817 26.6553H41.793L40.1348 29.9717H39.5212C33.0374 29.9717 27.3646 34.3305 25.6939 40.5953V40.597C25.3732 41.7992 25.2107 42.8223 25.2107 44.0669Z" fill="#428DC5"/>
<path d="M23.553 49.0416C23.553 49.0416 25.2113 47.8808 25.2113 43.2377C25.2113 43.2377 25.2113 49.0416 26.8695 49.0416C28.5278 49.0416 26.8695 49.0416 26.8695 49.0416H23.553Z" fill="#F6BB92"/>
</g>
<defs>
<clipPath id="clip0">
<rect width="49.7477" height="49.7477" fill="white" transform="translate(0.336426 0.123108)"/>
</clipPath>
</defs>
</svg>
