<svg width="50" height="50" viewBox="0 0 73 73" fill="none" xmlns="http://www.w3.org/2000/svg">
<path d="M35.8524 36.1861C35.8524 27.3004 35.8524 14.8037 35.8524 5.91804C35.8535 3.74994 36.1643 1.96955 36.5417 1.96955C36.9191 1.96955 37.2299 3.74994 37.231 5.91805C37.231 14.8037 37.231 27.3007 37.231 36.1861L35.8524 36.1861Z" fill="#E3E0E4"/>
<path d="M36.5571 29.1696C36.3184 29.1696 36.0834 29.2581 35.8524 29.4295L35.8524 36.1861L36.6183 36.1861H37.231L37.231 29.4079L37.231 5.91844C37.2298 3.74981 36.9192 1.96953 36.5417 1.96952C36.432 1.96952 36.3279 2.1194 36.2353 2.38851C36.4608 3.0367 36.6174 4.38017 36.6183 5.91855L36.6183 28.8166C36.6183 29.0134 36.591 29.1698 36.5576 29.1697C36.5575 29.1695 36.5573 29.1695 36.5571 29.1696Z" fill="#C8C3CA"/>
<path d="M24.026 46.7865C24.026 53.8548 29.7496 59.5847 36.81 59.5847C43.8704 59.5847 49.594 53.8548 49.594 46.7865C49.594 39.7183 43.8704 33.9883 36.81 33.9883C29.7496 33.9883 24.026 39.7183 24.026 46.7865Z" fill="#EFEDEF"/>
<path d="M24.0239 46.5966C24.0263 46.4405 24.031 46.2851 24.0388 46.1306C24.0412 46.0867 24.0436 46.0428 24.0467 45.9988C24.0474 45.9768 24.049 45.9549 24.0506 45.9329C24.0537 45.8898 24.0561 45.8474 24.06 45.8043C24.0608 45.7925 24.0615 45.7807 24.0631 45.769C24.0678 45.7078 24.0725 45.6467 24.0788 45.5854C24.231 43.946 24.6922 42.3968 25.4044 40.9958C25.4264 40.9535 25.4476 40.9119 25.4695 40.8696C25.5134 40.7856 25.5582 40.7025 25.6036 40.6194C25.6491 40.537 25.6954 40.4546 25.7425 40.373C25.766 40.3322 25.7895 40.2923 25.8139 40.2515C25.9582 40.0091 26.1104 39.7722 26.2688 39.5408C26.3159 39.4717 26.3637 39.4035 26.4123 39.336C26.5269 39.176 26.6453 39.0191 26.7669 38.8646C26.8242 38.7916 26.883 38.7194 26.9418 38.6481C26.9418 38.6481 26.9418 38.6473 26.9426 38.6473C27.0014 38.5759 27.0618 38.5046 27.1222 38.434C27.1285 38.4269 27.1348 38.4199 27.1402 38.4128C27.1951 38.35 27.2508 38.2873 27.3065 38.2253C27.3685 38.1563 27.4312 38.0881 27.4948 38.0206C27.876 37.6159 28.2831 37.237 28.7122 36.8856L28.695 36.9671C27.9937 41.6132 31.6208 46.0051 36.8058 46.7887L36.8081 46.7895C32.7629 50.2402 27.061 50.1798 24.0607 46.6538L24.0239 46.5966Z" fill="#EFEDEF"/>
<path d="M36.8081 46.7865L36.8074 46.7857C38.5833 42.4652 43.9612 40.592 48.8316 42.5986C48.8316 42.5986 48.8488 42.5907 48.881 42.5766C48.9336 42.7241 48.9837 42.8723 49.03 43.0221C49.0418 43.0598 49.0536 43.0967 49.0646 43.1343C49.274 43.8387 49.4246 44.5698 49.5101 45.3197C49.5164 45.3738 49.5219 45.4272 49.5274 45.4813C49.5376 45.5833 49.547 45.686 49.554 45.7888C49.5596 45.8468 49.5635 45.9049 49.5666 45.9622C49.5727 46.0617 49.5773 46.1612 49.5812 46.2608C49.5884 46.4364 49.5933 46.6126 49.5933 46.7897C49.5933 47.7653 49.483 48.715 49.2762 49.6277C49.2567 49.7153 49.2364 49.8027 49.2151 49.8897C49.2026 49.943 49.1892 49.9964 49.1751 50.0497C49.1672 50.0803 49.1594 50.1109 49.1508 50.1415C48.866 51.1942 48.4511 52.1927 47.924 53.1183L47.9051 53.05C47.1027 48.622 42.1413 45.8209 36.812 46.7865L36.808 46.7881C36.8081 46.7872 36.8081 46.7872 36.8081 46.7865Z" fill="#E3E0E4"/>
<path d="M30.5117 57.9282C30.5423 57.8992 30.558 57.8851 30.558 57.8851C35.3468 56.5476 38.1417 51.5878 36.8106 46.7927C36.8106 46.7912 36.8106 46.7904 36.809 46.7888C41.1233 49.8136 42.4481 55.3585 39.7725 59.1849L39.7286 59.2523C39.4987 59.3065 39.2658 59.3535 39.0312 59.3951C38.7057 59.4524 38.3809 59.4971 38.0578 59.5293C38.0083 59.534 37.959 59.5387 37.9095 59.5426C37.817 59.5504 37.7236 59.5575 37.6303 59.5638L37.6295 59.5638C37.3581 59.5811 37.0843 59.5897 36.8082 59.5897C36.3117 59.5897 35.8222 59.5614 35.3398 59.5065C35.2331 59.4939 35.1264 59.4806 35.0197 59.4657C34.9671 59.4579 34.9138 59.45 34.8613 59.4422C34.6777 59.4147 34.495 59.3818 34.3138 59.3465C34.1796 59.319 34.0463 59.29 33.9129 59.2594C32.7135 58.9793 31.5691 58.5275 30.5117 57.9282Z" fill="#E3E0E4"/>
<path d="M36.0251 34.0484L36.0628 34.0107C36.3091 33.9966 36.5577 33.9895 36.808 33.9895C39.7165 33.9895 42.3984 34.9614 44.5469 36.6C44.485 36.5984 44.4528 36.5977 44.4528 36.5977C39.7252 37.062 36.3091 41.6147 36.808 46.7793C36.8088 46.7816 36.8087 46.7832 36.8087 46.7856L36.8087 46.7864C36.8079 46.7864 36.808 46.7872 36.808 46.7872L36.8087 46.7879L36.8087 46.7887L36.8072 46.7887C33.0742 43.051 32.7243 37.353 36.0251 34.0484Z" fill="#8A9FF5"/>
<path d="M41.7543 37.3431C41.7593 37.3456 41.7643 37.3481 41.7693 37.3514C41.7684 37.3514 41.7685 37.3523 41.7685 37.3523C41.7635 37.3498 41.7585 37.3465 41.7543 37.3431Z" fill="#8A9FF5"/>
<path d="M27.0198 38.5524C29.2162 35.9403 32.437 34.2193 36.0617 34.0107L36.024 34.0483C35.562 34.5104 35.1721 35.0194 34.8529 35.5638C34.733 35.5681 34.6127 35.5726 34.4929 35.5795C31.6549 35.7427 29.0648 36.833 27.0198 38.5524Z" fill="#E3E0E4"/>
<path d="M45.0254 56.5955C45.6406 55.8622 46.175 55.0611 46.6131 54.2101C46.6425 54.4541 46.6418 54.7048 46.6555 54.9529C46.162 55.5483 45.6168 56.0982 45.0254 56.5955Z" fill="#E3E0E4"/>
<path d="M34.853 35.5638C35.1722 35.0194 35.5621 34.5103 36.024 34.0484L36.0617 34.0107C39.0806 33.826 42.1467 34.7572 44.5459 36.6C44.4839 36.5984 44.4518 36.5977 44.4518 36.5977C43.4963 36.6918 42.5951 36.9522 41.7683 37.3515C40.9424 36.8605 40.0624 36.4608 39.1468 36.1678C37.7642 35.7223 36.3048 35.5213 34.853 35.5638Z" fill="#6B80D7"/>
<path d="M49.4288 44.7367C48.8962 41.4289 47.0976 38.5446 44.5459 36.6001C44.4839 36.5985 44.4518 36.5977 44.4518 36.5977C43.4963 36.6919 42.5951 36.9523 41.7683 37.3515C42.1853 37.6013 42.5907 37.8737 42.977 38.1689C44.8228 39.5753 46.2747 41.4736 47.1391 43.6684C47.9031 43.9328 48.6554 44.2928 49.3762 44.7501L49.4409 44.8088L49.4288 44.7367Z" fill="#E3E0E4"/>
<path d="M28.6719 56.6653C28.7072 56.6426 28.7252 56.6308 28.7252 56.6308C33.6733 56.1453 37.287 51.7463 36.8086 46.7927C36.8086 46.7912 36.8086 46.7904 36.8078 46.7888C40.5314 50.5172 40.8734 56.2073 37.5734 59.5112L37.5185 59.57C37.2831 59.5834 37.0454 59.5896 36.807 59.5896C33.7164 59.5896 30.8823 58.4922 28.6719 56.6653Z" fill="#8A9FF5"/>
<path d="M36.8082 46.788C36.8082 46.7872 36.8082 46.7872 36.8082 46.7864L36.8082 46.7856C39.3073 42.8393 44.9284 41.9278 49.3768 44.7501C49.3768 44.7501 49.3948 44.7453 49.4294 44.7367C50.051 48.3673 48.9205 52.2848 46.6557 54.9529L46.6494 54.8815C46.6282 50.3821 42.2284 46.7613 36.8121 46.7872L36.8082 46.788Z" fill="#8A9FF5"/>
<path d="M46.6133 54.21C48.2876 50.9947 48.478 47.0307 47.1397 43.6684C47.9037 43.9327 48.656 44.2927 49.3768 44.7501C49.3768 44.7501 49.3948 44.7453 49.4294 44.7367C50.0267 48.3359 48.9987 52.1552 46.6557 54.9529C46.642 54.7048 46.6428 54.4542 46.6133 54.21Z" fill="#6B80D7"/>
<path d="M28.712 36.8859L28.6953 36.9674C27.994 41.6132 31.6209 46.0059 36.8059 46.7896L36.8082 46.79C32.7627 50.2408 27.0609 50.1801 24.0608 46.6546L24.022 46.5944C24.0332 45.9257 24.0967 45.2495 24.2165 44.5697C24.7704 41.4287 26.4241 38.7581 28.712 36.8859Z" fill="#E3E0E4"/>
<path d="M27.1145 38.4418L27.1121 38.525C27.2282 43.2221 31.5629 46.9182 36.8051 46.7895L36.8074 46.7895C33.4227 50.8904 27.7969 51.8207 24.2302 48.8698L24.1815 48.8173C24.0764 48.1568 24.0215 47.4798 24.0215 46.7896C24.0216 43.6002 25.1864 40.6829 27.1145 38.4418Z" fill="#8A9FF5"/>
</svg>
