<svg width="51" height="52" viewBox="0 0 51 52" fill="none" xmlns="http://www.w3.org/2000/svg">
<g clip-path="url(#clip0)">
<path d="M10.8218 9.97998H31.6894V13.4688H10.8218V9.97998Z" fill="#D8DCE5"/>
<path d="M10.8218 9.97998H13.8702V13.4688H10.8218V9.97998Z" fill="#C3C8D1"/>
<path d="M31.7861 13.2403H10.7263C8.1047 13.2403 5.95898 15.3852 5.95898 18.0076V46.6112C5.95898 49.2331 8.10431 51.3784 10.7263 51.3784H31.7861C34.4081 51.3784 36.5534 49.2331 36.5534 46.6112C36.5534 46.2235 36.5534 18.8325 36.5534 18.0076C36.5534 15.3852 34.4077 13.2403 31.7861 13.2403Z" fill="#E4EAF8"/>
<path d="M9.00745 46.6112C9.00745 46.1284 9.00745 18.819 9.00745 18.0076C9.00745 15.3852 11.1532 13.2403 13.7747 13.2403H10.7263C8.1047 13.2403 5.95898 15.3852 5.95898 18.0076V46.6112C5.95898 49.2331 8.10431 51.3784 10.7263 51.3784H13.7747C11.1528 51.3784 9.00745 49.2331 9.00745 46.6112Z" fill="#D8DCE5"/>
<path d="M32.6073 7.43662V2.55338C32.6073 1.63136 31.8528 0.876953 30.9308 0.876953H11.5824C10.66 0.876953 9.90601 1.63136 9.90601 2.55338V7.43662H32.6073Z" fill="#00C3FF"/>
<path d="M14.6309 0.876953H11.5824C10.6604 0.876953 9.90601 1.63136 9.90601 2.55338V7.43662H12.9545V2.55338C12.9545 1.63136 13.7089 0.876953 14.6309 0.876953Z" fill="#00AAF0"/>
<path d="M30.9208 22.0266C30.9208 22.0127 30.6581 21.9106 30.3976 21.9106C24.5338 21.9106 21.3782 21.9106 12.1142 21.9106C11.8055 21.9106 11.6926 22.0012 11.5909 22.0266C11.159 22.2262 10.8569 22.6631 10.8569 23.1679V41.4509C10.8569 42.1425 11.4229 42.7085 12.1142 42.7085H30.3976C31.0888 42.7085 31.6548 42.1425 31.6548 41.4509C31.6548 40.564 31.6548 23.8683 31.6548 23.1679C31.6548 22.6631 31.3524 22.2262 30.9208 22.0266Z" fill="#F9D68F"/>
<path d="M13.9054 41.4509C13.9054 40.8645 13.9054 24.3488 13.9054 23.1679C13.9054 22.6631 14.2075 22.2262 14.6394 22.0266C14.7411 22.0012 14.854 21.9106 15.1626 21.9106C14.2221 21.9106 13.2115 21.9106 12.1142 21.9106C11.8055 21.9106 11.6926 22.0012 11.5909 22.0266C11.159 22.2262 10.8569 22.6631 10.8569 23.1679V41.4509C10.8569 42.1425 11.4229 42.7085 12.1142 42.7085H15.1626C14.4714 42.7085 13.9054 42.1425 13.9054 41.4509Z" fill="#FFC850"/>
<path d="M25.0023 32.0959L21.5901 25.6877C21.4479 25.4211 21.0657 25.4211 20.9235 25.6877L17.5113 32.0959C16.0068 34.9225 18.055 38.3335 21.2568 38.3335C24.459 38.3335 26.5072 34.9225 25.0023 32.0959Z" fill="#FFC850"/>
<path d="M20.56 32.0964L22.7808 27.9248L21.5899 25.6881C21.4481 25.4211 21.0655 25.4211 20.9237 25.6881L17.5115 32.0964C16.0066 34.9225 18.0548 38.3335 21.2566 38.3335C21.8026 38.3335 22.3139 38.2326 22.7808 38.0538C20.5091 37.1853 19.3116 34.4405 20.56 32.0964Z" fill="#FEB644"/>
<path d="M32.9034 7.23315H9.60843C8.77927 7.23315 8.10693 7.9055 8.10693 8.73504C8.10693 9.56458 8.77927 10.2369 9.60843 10.2369H32.9034C33.733 10.2369 34.4053 9.56458 34.4053 8.73504C34.4053 7.9055 33.733 7.23315 32.9034 7.23315Z" fill="#00AAF0"/>
<path d="M32.9038 8.35713H9.60882C9.13567 8.35713 8.71377 8.13751 8.43867 7.79498C8.23177 8.05236 8.10693 8.37909 8.10693 8.7351C8.10693 9.56465 8.77966 10.237 9.60882 10.237H32.9038C33.7333 10.237 34.4057 9.56465 34.4057 8.7351C34.4057 8.37909 34.2812 8.05236 34.0739 7.79498C33.7988 8.13751 33.3773 8.35713 32.9038 8.35713Z" fill="#059ADB"/>
<path d="M40.8788 35.3366C40.1595 35.3366 28.3844 35.3366 27.6651 35.3366C25.45 35.3366 23.6545 37.1321 23.6545 39.3472C23.6545 41.5618 25.45 43.3573 27.6651 43.3573H40.8788C43.0935 43.3573 44.889 41.5618 44.889 39.3472C44.889 37.1321 43.0935 35.3366 40.8788 35.3366Z" fill="#FEB644"/>
<path d="M40.8788 40.3089C40.1595 40.3089 28.3844 40.3089 27.6651 40.3089C25.9898 40.3089 24.5554 39.2817 23.9551 37.8226C23.762 38.2926 23.6545 38.8074 23.6545 39.3472C23.6545 41.5619 25.45 43.3573 27.6651 43.3573H40.8788C43.0935 43.3573 44.8894 41.5619 44.8894 39.3472C44.8894 38.8074 44.7819 38.2926 44.5884 37.8226C43.9885 39.2817 42.5537 40.3089 40.8788 40.3089Z" fill="#F9972D"/>
<path d="M32.5759 43.3682H35.9665V35.3475C34.8588 35.3475 33.684 35.3475 32.5759 35.3475V43.3682Z" fill="#F9972D"/>
<path d="M32.5759 43.3681H35.9665V40.3089C34.8588 40.3089 33.684 40.3089 32.5759 40.3089V43.3681Z" fill="#EF8720"/>
<path d="M44.0606 32.4288C43.552 31.9202 35.2258 23.594 34.7172 23.085C33.1509 21.5191 30.6115 21.5188 29.0452 23.085C27.4794 24.6512 27.4794 27.1907 29.0452 28.7569C29.5538 29.2655 37.8801 37.5914 38.3887 38.1004C39.9549 39.6666 42.4944 39.6666 44.0606 38.1004C45.6264 36.5341 45.6264 33.9946 44.0606 32.4288Z" fill="#FEB644"/>
<path d="M41.4378 38.1004C40.9288 37.5915 32.6026 29.2652 32.0944 28.7566C30.5281 27.1908 30.5281 24.6513 32.094 23.0851C32.4816 22.6979 32.9285 22.4066 33.4055 22.2108C31.9541 21.6152 30.2245 21.9065 29.0455 23.0851C27.4793 24.6513 27.4793 27.1904 29.0455 28.7566C29.5541 29.2652 37.8804 37.5915 38.3889 38.1004C39.5679 39.2791 41.2979 39.5703 42.7493 38.9747C42.2723 38.7789 41.825 38.4877 41.4378 38.1004Z" fill="#F9972D"/>
<path d="M32.5112 32.2373C33.2945 33.0206 34.1252 33.8513 34.9085 34.6346L40.5801 28.963C39.7968 28.1797 38.9661 27.349 38.1828 26.5657L32.5112 32.2373Z" fill="#F9972D"/>
<path d="M32.5112 32.2373C33.2945 33.0206 34.1252 33.8513 34.9085 34.6346L36.4443 33.0988C35.661 32.3155 34.8303 31.4848 34.047 30.7015L32.5112 32.2373Z" fill="#EF8720"/>
<path d="M40.8788 43.3497C40.1595 43.3497 28.3844 43.3497 27.6651 43.3497C25.45 43.3497 23.6545 45.1471 23.6545 47.3641C23.6545 49.5811 25.45 51.3785 27.6651 51.3785H40.8788C43.0935 51.3785 44.889 49.5811 44.889 47.3641C44.889 45.1471 43.0935 43.3497 40.8788 43.3497Z" fill="#FEB644"/>
<path d="M40.8788 48.33C40.1595 48.33 28.3844 48.33 27.6651 48.33C25.9894 48.33 24.5542 47.3009 23.9547 45.8398C23.7617 46.3099 23.6545 46.8243 23.6545 47.3641C23.6545 49.5811 25.45 51.3785 27.6651 51.3785H40.8788C43.0935 51.3785 44.8894 49.5811 44.8894 47.3641C44.8894 46.8243 44.7822 46.3099 44.5892 45.8398C43.9893 47.3009 42.5545 48.33 40.8788 48.33Z" fill="#F9972D"/>
<path d="M32.5759 51.3785H35.9665V43.3497C34.8588 43.3497 33.684 43.3497 32.5759 43.3497V51.3785Z" fill="#F9972D"/>
<path d="M32.5759 51.3784H35.9665V48.2987C34.8588 48.2987 33.684 48.2987 32.5759 48.2987V51.3784Z" fill="#EF8720"/>
</g>
<defs>
<clipPath id="clip0">
<rect width="50.5015" height="50.5015" fill="white" transform="translate(0.336426 0.876892)"/>
</clipPath>
</defs>
</svg>
