<svg width="48" height="49" viewBox="0 0 48 49" fill="none" xmlns="http://www.w3.org/2000/svg">
<path d="M23.879 36.9C29.5891 36.9 34.2182 32.9581 34.2182 26.9262C34.2182 19.4047 25.8426 12.6508 24.1682 11.3758C23.997 11.2454 23.761 11.2454 23.5898 11.3758C21.9154 12.6508 13.5398 19.4047 13.5398 26.9262C13.5397 32.9581 18.1688 36.9 23.879 36.9Z" fill="#FFE55A"/>
<path d="M23.5891 11.3767C23.4449 11.4866 23.2511 11.6369 23.0176 11.8247C25.4997 13.8197 32.4951 20.0519 32.4951 26.9263C32.4951 32.6517 28.3245 36.4934 23.0176 36.8692C23.3018 36.8894 23.589 36.9 23.8792 36.9C29.5894 36.9 34.2184 32.9582 34.2184 26.9262C34.2184 19.4049 25.8431 12.651 24.1686 11.376C23.9971 11.2454 23.7605 11.2461 23.5891 11.3767Z" fill="#FFD91D"/>
<path d="M23.8785 0.717712C10.7655 0.717712 0.135254 11.3479 0.135254 24.461C0.135254 37.574 10.7655 48.2042 23.8785 48.2042C36.9915 48.2042 47.6217 37.574 47.6217 24.461C47.6217 11.3479 36.9915 0.717712 23.8785 0.717712ZM43.5551 24.461C43.5551 29.037 41.9927 33.248 39.3728 36.5901L11.7493 8.96673C15.0915 6.34672 19.3025 4.78439 23.8785 4.78439C34.7456 4.78439 43.5551 13.5939 43.5551 24.461ZM4.20193 24.461C4.20193 19.8851 5.76407 15.6743 8.3839 12.3321L36.0073 39.9556C32.6652 42.5754 28.4544 44.1376 23.8785 44.1376C13.0114 44.1375 4.20193 35.328 4.20193 24.461Z" fill="#FF4755"/>
<path d="M22.1545 4.78442C17.7774 4.78442 13.7343 6.21384 10.4661 8.63111C10.2311 8.80491 10.2065 9.14789 10.413 9.35463L38.2682 37.2259C38.48 37.4378 38.8313 37.4049 39.0019 37.1589C39.1304 36.9738 39.2532 36.7835 39.3708 36.589L11.7487 8.96676C14.8766 6.51471 18.7656 4.98939 23.0025 4.80381C22.7212 4.79184 22.4388 4.78442 22.1545 4.78442Z" fill="#FC2B3A"/>
<path d="M4.20087 24.461C4.20087 19.8848 5.76394 15.6745 8.38404 12.3324L7.8091 11.7575C7.61081 11.5592 7.28471 11.5726 7.10395 11.787C4.21775 15.2109 2.47754 19.6324 2.47754 24.461C2.47754 35.3285 11.2874 44.1384 22.1549 44.1384C22.4438 44.1384 22.7308 44.1309 23.0166 44.1185C12.549 43.6673 4.20087 35.0397 4.20087 24.461Z" fill="#FC2B3A"/>
<path d="M23.879 0.717712C23.5903 0.717712 23.3035 0.724668 23.0173 0.734963C35.731 1.18868 45.8989 11.6365 45.8989 24.461C45.8989 37.2854 35.731 47.7332 23.0173 48.187C23.3035 48.1972 23.5904 48.2042 23.879 48.2042C36.992 48.2042 47.6222 37.574 47.6222 24.461C47.6222 11.3479 36.992 0.717712 23.879 0.717712Z" fill="#FC2B3A"/>
<path d="M16.1231 28.8763C16.9088 31.2059 18.7151 33.027 21.0786 33.8728C21.4669 34.0119 21.903 33.7844 22.0127 33.3876C22.1116 33.0301 21.9113 32.6456 21.5623 32.5208C19.5864 31.8136 18.1378 30.3563 17.4838 28.4174C17.3571 28.0415 16.9495 27.8399 16.5739 27.9664C16.1981 28.0932 15.9963 28.5005 16.1231 28.8763Z" fill="#F9CF1E"/>
</svg>
