<svg width="54" height="54" viewBox="0 0 54 54" fill="none" xmlns="http://www.w3.org/2000/svg">
<path d="M13.345 5.77527H7.3689V9.76305H13.345V5.77527Z" fill="#48C1E1"/>
<path d="M14.578 5.33631C14.578 5.6633 14.3106 5.93085 13.9836 5.93085H6.73115C6.40416 5.93085 6.13672 5.6633 6.13672 5.33631V1.05097C6.13672 0.723973 6.40416 0.456421 6.73115 0.456421H13.9835C14.3105 0.456421 14.5779 0.723973 14.5779 1.05097L14.578 5.33631Z" fill="#046699"/>
<g opacity="0.1">
<path opacity="0.1" d="M8.61637 5.33631V1.05097C8.61637 0.723973 8.88381 0.456421 9.21092 0.456421H6.73115C6.40416 0.456421 6.13672 0.723973 6.13672 1.05097V5.33631C6.13672 5.6633 6.40416 5.93085 6.73115 5.93085H9.21092C8.88392 5.93085 8.61637 5.6633 8.61637 5.33631Z" fill="black"/>
</g>
<path d="M5.51589 38.1011C5.54648 38.0885 5.57026 38.0634 5.58099 38.0321C5.59184 38.0008 5.58861 37.9664 5.57245 37.9377C5.52293 37.8502 5.49788 37.7642 5.49788 37.6822C5.49788 37.046 6.9094 36.3649 9.01092 36.3649C9.68719 36.3649 10.346 36.44 10.9162 36.5823C10.9255 36.5847 10.9348 36.5858 10.9442 36.5858C10.9744 36.5858 11.0038 36.5739 11.0258 36.552C11.0545 36.5233 11.066 36.4817 11.0561 36.4425C10.6894 34.9788 10.4795 33.4744 10.4302 31.9371C10.4295 31.9192 10.4283 31.9013 10.4278 31.8833C10.4212 31.6639 10.4177 31.4438 10.4177 31.2231C10.4177 30.9569 10.6337 30.7404 10.8993 30.7404H11.9421C11.9749 30.7404 12.0063 30.7264 12.0281 30.702C12.0499 30.6775 12.0604 30.6448 12.0568 30.6122C12.0398 30.4592 12.0318 30.3315 12.0318 30.2099C12.0318 28.5836 13.0718 27.1632 14.6197 26.6755C14.6516 26.6655 14.6775 26.642 14.6908 26.6113C14.7042 26.5806 14.7035 26.5457 14.689 26.5155C14.5484 26.2223 14.4498 25.9157 14.3958 25.6045C14.1262 24.0485 14.9402 22.4993 16.3753 21.8371C16.4296 21.812 16.4558 21.7497 16.4357 21.6934C16.3683 21.5048 16.3173 21.3111 16.2838 21.1175C16.0649 19.855 16.5587 18.6306 17.4733 17.8553V12.8984C17.4733 11.0736 15.9838 9.58057 14.163 9.58057H6.54974C4.72916 9.58057 3.2395 11.0736 3.2395 12.8984V39.4779C3.90284 38.9188 4.66753 38.4506 5.51589 38.1011Z" fill="#A2DFF9"/>
<path d="M14.6198 26.6753C14.6517 26.6652 14.6777 26.6418 14.6909 26.6111C14.7043 26.5804 14.7036 26.5454 14.6891 26.5153C14.5485 26.222 14.4499 25.9155 14.3959 25.6043C14.1263 24.0482 14.9404 22.499 16.3754 21.8368C16.4297 21.8118 16.4559 21.7495 16.4358 21.6931C16.3684 21.5045 16.3174 21.3109 16.2839 21.1173C16.065 19.8548 16.5588 18.6304 17.4735 17.8551V15.6232H3.2395V27.9046H12.8334C13.2811 27.3401 13.8935 26.9042 14.6198 26.6753Z" fill="#046699"/>
<path opacity="0.1" d="M6.81418 36.6619V12.8982C6.81418 11.0734 8.30372 9.58038 10.1244 9.58038H6.54974C4.72916 9.58038 3.2395 11.0734 3.2395 12.8982V39.4778C3.90284 38.9187 4.66753 38.4506 5.51589 38.101C5.54648 38.0884 5.57026 38.0633 5.58099 38.032C5.59184 38.0007 5.58861 37.9663 5.57245 37.9376C5.52293 37.8501 5.49788 37.7641 5.49788 37.6822C5.498 37.3083 5.98613 36.9194 6.81418 36.6619Z" fill="black"/>
<path d="M28.3457 19.0177C28.379 19.2102 28.3962 19.4099 28.3966 19.6113C28.3967 19.6711 28.4423 19.7208 28.5018 19.7262C29.9794 19.856 31.2147 20.9086 31.5762 22.3455C31.5862 22.3851 31.6164 22.4165 31.6555 22.428C31.6664 22.4312 31.6772 22.4327 31.6882 22.4327C31.7171 22.4327 31.7452 22.4219 31.7669 22.4017C32.369 21.8401 33.1182 21.5026 33.9337 21.4258C33.9915 21.4203 34.0364 21.3727 34.0381 21.3146C34.0906 19.696 34.7488 18.1739 35.8915 17.0288C35.9154 17.0049 35.9403 16.9826 35.9645 16.9591C35.7118 15.3475 34.9691 13.7989 33.7327 12.5597C33.4895 12.3162 33.0953 12.3161 32.8518 12.5597L27.7852 17.638C28.0617 18.0413 28.2572 18.5081 28.3457 19.0177Z" fill="#EF5050"/>
<path d="M31.5764 22.3453C31.5863 22.3849 31.6165 22.4163 31.6557 22.4279C31.6665 22.4311 31.6774 22.4326 31.6883 22.4326C31.7172 22.4326 31.7453 22.4217 31.767 22.4015C32.0611 22.1272 32.3908 21.9073 32.7458 21.7442C32.7061 21.6118 32.6342 21.4869 32.5298 21.3821L31.6894 20.5396C31.3519 20.2012 30.8037 20.2004 30.4652 20.5381C30.4626 20.5406 30.4607 20.5432 30.4583 20.5458C30.9966 21.0048 31.3957 21.6271 31.5764 22.3453Z" fill="#C0272D"/>
<path d="M33.3766 19.7829H32.1882C31.71 19.7829 31.3225 19.3953 31.3225 18.9173C31.3225 18.4392 31.71 18.0516 32.1882 18.0516H33.3766C33.8548 18.0516 34.2423 18.4392 34.2423 18.9173C34.2423 19.3955 33.8548 19.7829 33.3766 19.7829Z" fill="#C0272D"/>
<path d="M32.0202 17.3913C31.7989 17.3913 31.5777 17.3071 31.4087 17.1384C31.0703 16.8007 31.0698 16.2526 31.4074 15.9141L32.2482 15.0718C32.5859 14.7335 33.1341 14.7329 33.4724 15.0706C33.8108 15.4084 33.8112 15.9565 33.4736 16.2949L32.6329 17.1373C32.4639 17.3065 32.2421 17.3913 32.0202 17.3913Z" fill="#C0272D"/>
<path d="M42.8731 15.6258C42.8629 15.5993 42.8471 15.5758 42.8275 15.5561C42.8078 15.5363 42.7843 15.5206 42.7579 15.5102C40.3604 14.5553 37.633 15.1194 35.8093 16.9472C34.5978 18.1614 33.9436 19.7755 33.9197 21.4269C34.0395 21.4151 34.161 21.4087 34.2838 21.4087C36.0791 21.4087 37.5788 22.698 37.9117 24.4012C39.2209 24.1879 40.4605 23.5716 41.4397 22.5902C43.2632 20.7623 43.8259 18.0287 42.8731 15.6258Z" fill="#89C947"/>
<path d="M39.7637 18.6278C39.4252 18.2901 38.8771 18.2907 38.5395 18.6292L35.5449 21.6306C36.1102 21.8366 36.6113 22.1771 37.0101 22.6133L39.7652 19.852C40.1029 19.5136 40.1022 18.9655 39.7637 18.6278Z" fill="#D5E962"/>
<path d="M44.1161 25.5398C44.1462 25.7143 44.1617 25.894 44.1618 26.0741C44.1619 26.1339 44.2076 26.1836 44.267 26.1889C44.7355 26.2301 45.1822 26.3753 45.5946 26.6205C45.613 26.6315 45.6333 26.6368 45.6536 26.6368C45.6859 26.6368 45.718 26.6232 45.7406 26.5972C45.8391 26.4844 45.9235 26.3931 46.0066 26.3099C46.7033 25.6116 47.5458 25.1132 48.4644 24.8415C48.5506 24.5224 48.5974 24.1873 48.5974 23.8409C48.5974 21.7306 46.8905 20.0197 44.7848 20.0197C42.9891 20.0197 41.484 21.2645 41.0798 22.9399C42.5854 22.966 43.8579 24.0501 44.1161 25.5398Z" fill="#FFC502"/>
<path d="M17.9877 30.6573C17.6011 29.9723 17.3564 29.221 17.2629 28.4479C16.138 28.2639 15.183 27.5434 14.6937 26.532C13.0911 26.9842 11.916 28.4589 11.916 30.2096C11.916 30.3613 11.9276 30.5102 11.9448 30.6572H17.9877V30.6573Z" fill="#FFC502"/>
<path d="M47.0857 28.7788C47.1972 29.422 47.1086 30.0699 46.83 30.6573H51.729C52.8859 29.0326 53.1656 26.9123 52.4134 25.0147C52.4038 24.9906 52.3895 24.9689 52.3713 24.9508C52.3532 24.9326 52.3315 24.9182 52.3075 24.9086C50.1056 24.0316 47.6009 24.5497 45.926 26.2283C45.8036 26.351 45.6892 26.4791 45.5793 26.6102C46.3568 27.0668 46.9244 27.8477 47.0857 28.7788Z" fill="#89C947"/>
<path d="M46.8291 30.6572H47.8997L49.6071 28.946C49.9448 28.6075 49.9442 28.0594 49.6056 27.7218C49.2672 27.3841 48.719 27.3846 48.3814 27.7232L47.1137 28.9937C47.1733 29.5654 47.0767 30.1353 46.8291 30.6572Z" fill="#D5E962"/>
<path d="M31.7088 22.4122C31.3615 20.8575 30.0454 19.7457 28.512 19.611C28.5117 19.4087 28.4953 19.2038 28.4595 18.9977C28.1195 17.036 26.2511 15.7226 24.2866 16.0646C23.2668 16.2421 22.4227 16.8314 21.8927 17.6304C21.1253 17.0571 20.132 16.7878 19.1123 16.9652C17.1474 17.3074 15.8305 19.1751 16.1708 21.1369C16.2064 21.3429 16.2597 21.5415 16.3277 21.7319C14.8779 22.4008 13.9976 23.9787 14.2827 25.6239C14.5521 27.179 15.7824 28.3255 17.2596 28.564C17.1165 27.5722 17.2313 26.5487 17.6146 25.5817C17.6183 25.5723 17.6239 25.564 17.6311 25.5566C17.6382 25.5495 17.6467 25.544 17.6561 25.5402C18.3438 25.2663 19.0666 25.1273 19.8041 25.1273C21.3555 25.1273 22.8148 25.7334 23.9131 26.8341C23.9925 26.9139 24.0687 26.9962 24.1429 27.0797C24.0815 26.6817 24.0496 26.2766 24.0496 25.866C24.0496 25.5856 24.2771 25.3574 24.5568 25.3574H30.6009C30.5957 25.277 30.5918 25.1962 30.5918 25.1145C30.5918 24.0593 31.0187 23.1038 31.7088 22.4122Z" fill="#368C0E"/>
<path d="M19.0672 22.7503C19.0621 22.7503 19.0572 22.7502 19.0522 22.7502C18.5741 22.7421 18.1932 22.348 18.2013 21.8699C18.2267 20.3712 19.456 19.1681 20.9507 19.1681C20.9654 19.1681 20.9799 19.1682 20.9947 19.1684C21.7477 19.1801 22.4711 19.5057 22.979 20.0619C23.3014 20.415 23.2766 20.9626 22.9236 21.285C22.5707 21.6075 22.0231 21.5826 21.7006 21.2297C21.5104 21.0212 21.25 20.9041 20.9675 20.8997C20.4049 20.8906 19.9418 21.3393 19.9323 21.8994C19.9245 22.3723 19.5384 22.7502 19.0672 22.7503Z" fill="#89C947"/>
<path d="M23.846 24.2397C23.746 24.2397 23.6444 24.2223 23.5452 24.1855C23.0969 24.0191 22.8682 23.5211 23.0345 23.0728C23.5174 21.7709 24.9702 21.1028 26.2736 21.5836C26.9218 21.823 27.4486 22.3249 27.7188 22.9609C27.9058 23.4009 27.7008 23.9092 27.2607 24.0962C26.8209 24.2833 26.3125 24.0782 26.1254 23.6381C26.0396 23.4365 25.8793 23.2837 25.6741 23.2078C25.2647 23.0568 24.8092 23.2665 24.6578 23.6748C24.5284 24.0239 24.1976 24.2397 23.846 24.2397Z" fill="#89C947"/>
<path d="M37.9741 25.348H37.9425C37.9423 25.3561 37.9423 25.3643 37.9419 25.3724H39.1015C39.4456 25.3724 39.7243 25.6518 39.7243 25.9965C39.7243 27.7359 39.1629 29.3442 38.2172 30.6573H46.9543C47.2155 30.0825 47.3151 29.4274 47.1994 28.759C46.942 27.2733 45.7142 26.2 44.2782 26.0738C44.278 25.8911 44.2629 25.706 44.2308 25.52C43.9236 23.748 42.2362 22.5618 40.4619 22.8707C39.5408 23.0312 38.7782 23.5632 38.2996 24.2852C38.1444 24.1693 37.9784 24.0684 37.8047 23.9816C37.9194 24.339 37.9821 24.7195 37.9821 25.1146C37.982 25.1908 37.9794 25.2679 37.9741 25.348Z" fill="#368C0E"/>
<path d="M38.0878 25.3573C38.0931 25.277 38.0969 25.1962 38.0969 25.1145C38.0969 23.004 36.3899 21.2932 34.2842 21.2932C32.1787 21.2932 30.4717 23.0041 30.4717 25.1145C30.4717 25.1962 30.4755 25.277 30.4807 25.3573H38.0878Z" fill="#F7931E"/>
<path d="M23.9946 26.7528C22.3197 25.0743 19.8149 24.5563 17.6131 25.4332C17.589 25.4428 17.5674 25.4573 17.5491 25.4753C17.5311 25.4934 17.5167 25.515 17.5071 25.5393C16.8335 27.2386 16.9877 29.1164 17.8575 30.6574H25.7156C24.9196 29.5971 24.38 28.3334 24.1906 26.9589C24.1271 26.889 24.0619 26.8202 23.9946 26.7528Z" fill="#89C947"/>
<path d="M21.4975 30.6573H23.9433L21.5391 28.2477C21.2014 27.9094 20.6534 27.9085 20.3149 28.2463C19.9764 28.5839 19.9757 29.1321 20.3134 29.4705L21.4975 30.6573Z" fill="#D5E962"/>
<path d="M38.2748 30.6573C39.2777 29.3211 39.8757 27.6631 39.8757 25.866C39.8757 25.5214 39.5971 25.2419 39.2529 25.2419H24.5564C24.2124 25.2419 23.9338 25.5214 23.9338 25.866C23.9338 27.6631 24.5318 29.3211 25.5349 30.6573H38.2748Z" fill="#EF5050"/>
<path d="M32.8029 30.6572V30.0584C32.8029 29.5803 32.4154 29.1927 31.9372 29.1927C31.459 29.1927 31.0715 29.5803 31.0715 30.0584V30.6572H32.8029Z" fill="#C0272D"/>
<path d="M34.4643 30.6572H35.8105C36.089 30.3175 36.0701 29.8154 35.7532 29.4978L34.9128 28.6554C34.5752 28.317 34.0271 28.3162 33.6886 28.6539C33.3501 28.9917 33.3495 29.5397 33.6871 29.8781L34.4643 30.6572Z" fill="#C0272D"/>
<path d="M29.2746 30.6572L30.0516 29.8784C30.3894 29.5399 30.3888 28.9918 30.0504 28.6542C29.7119 28.3164 29.1638 28.317 28.8261 28.6554L27.9855 29.4978C27.6687 29.8153 27.6497 30.3174 27.9281 30.6571L29.2746 30.6572Z" fill="#C0272D"/>
<path d="M27.9432 28.3227H26.7546C26.2764 28.3227 25.8889 27.9351 25.8889 27.457C25.8889 26.979 26.2764 26.5914 26.7546 26.5914H27.9432C28.4214 26.5914 28.8089 26.979 28.8089 27.457C28.8089 27.9351 28.4213 28.3227 27.9432 28.3227Z" fill="#C0272D"/>
<path d="M37.0566 28.3227H35.8679C35.3898 28.3227 35.0022 27.9351 35.0022 27.457C35.0022 26.979 35.3898 26.5914 35.8679 26.5914H37.0566C37.5348 26.5914 37.9223 26.979 37.9223 27.457C37.9223 27.9351 37.5347 28.3227 37.0566 28.3227Z" fill="#C0272D"/>
<path d="M11.0831 36.6262C11.0935 36.6291 11.104 36.6306 11.1144 36.6306C11.1393 36.6306 11.1638 36.6225 11.1841 36.6072C11.213 36.5853 11.2298 36.5513 11.2298 36.5152V35.0501C11.2298 34.6364 11.5664 34.2998 11.9801 34.2998C12.3938 34.2998 12.7303 34.6364 12.7303 35.0501V36.5152C12.7303 36.5513 12.7472 36.5853 12.776 36.6072C12.7964 36.6225 12.8208 36.6306 12.8458 36.6306C12.8563 36.6306 12.8668 36.6292 12.877 36.6262C13.4843 36.4551 14.2007 36.3647 14.9486 36.3647C17.0498 36.3647 18.4615 37.0458 18.4615 37.682C18.4615 37.7642 18.4364 37.8502 18.3869 37.9377C18.3705 37.9664 18.3674 38.0009 18.3783 38.0322C18.3891 38.0635 18.4128 38.0886 18.4434 38.1012C21.1338 39.2102 23.0402 41.5627 23.4189 44.2404C23.4239 44.2751 23.4443 44.3057 23.4745 44.3236C23.4925 44.3342 23.5128 44.3396 23.5332 44.3396C23.5471 44.3396 23.5609 44.3371 23.5742 44.3321L41.7967 37.4095C42.1493 37.2756 42.5194 37.2077 42.8966 37.2077C43.4251 37.2077 43.9479 37.344 44.4085 37.6018C45.2096 38.0501 45.7646 38.8233 45.9314 39.723L46.0901 40.5801C46.0971 40.6171 46.1214 40.6485 46.1558 40.6641C46.171 40.671 46.1873 40.6745 46.2036 40.6745C46.224 40.6745 46.2443 40.6692 46.2623 40.6584L52.389 37.0417C52.9155 35.1658 53.1824 33.2206 53.1824 31.2228C53.1824 30.8924 52.915 30.6246 52.5854 30.6246H10.9C10.5703 30.6246 10.303 30.8924 10.303 31.2228C10.303 33.0639 10.5306 34.8601 10.9779 36.5989C11.0128 36.6081 11.0488 36.6165 11.0831 36.6262Z" fill="#E6E9ED"/>
<path opacity="0.1" d="M11.0831 36.6262C11.0935 36.6291 11.104 36.6306 11.1144 36.6306C11.1393 36.6306 11.1638 36.6225 11.1841 36.6072C11.213 36.5854 11.2298 36.5513 11.2298 36.5152V35.0501C11.2298 34.6364 11.5664 34.2998 11.9801 34.2998C12.3938 34.2998 12.7303 34.6364 12.7303 35.0501V36.5152C12.7303 36.5513 12.7472 36.5854 12.776 36.6072C12.7964 36.6225 12.8208 36.6306 12.8458 36.6306C12.8563 36.6306 12.8668 36.6292 12.877 36.6262C13.3968 36.4797 13.9969 36.3929 14.6279 36.3709C14.2188 34.7032 14.0117 32.9834 14.0117 31.2228C14.0117 30.8924 14.2789 30.6246 14.6086 30.6246H10.9C10.5703 30.6246 10.303 30.8924 10.303 31.2228C10.303 33.0639 10.5306 34.8601 10.9779 36.5989C11.0128 36.6081 11.0488 36.6165 11.0831 36.6262Z" fill="black"/>
<path d="M11.9797 37.0381C12.2168 36.905 12.5104 36.789 12.8456 36.6944V35.0499C12.8456 34.5718 12.4581 34.1842 11.9799 34.1842C11.5017 34.1842 11.1143 34.5718 11.1143 35.0499V36.6944C11.4494 36.7889 11.7427 36.905 11.9797 37.0381Z" fill="#89C947"/>
<path d="M20.8237 53.1025L17.6971 53.1037H17.6959C16.2075 53.1036 14.9313 52.0459 14.6614 50.5884L14.6306 50.4227C14.3606 48.965 15.1744 47.5232 16.5656 46.9946L23.5502 44.3412C23.1906 41.4644 21.1633 39.055 18.3795 37.9496C18.1094 38.4036 17.1793 38.7988 15.9683 38.9409C15.9221 38.9463 15.8835 38.979 15.8707 39.0238C15.8579 39.0685 15.8732 39.1166 15.9095 39.1456C16.5372 39.6477 16.9315 40.1771 16.9644 40.5618C16.9764 40.7012 16.9421 40.8143 16.8594 40.9076C16.7123 41.0738 16.4228 41.1616 16.0225 41.1616C16.0225 41.1616 16.0225 41.1616 16.0224 41.1616C15.2431 41.1616 14.1892 40.8358 13.2033 40.2901C12.7691 40.0494 12.3827 39.7866 12.0546 39.5085C12.033 39.4903 12.0065 39.4812 11.98 39.4812C11.9535 39.4812 11.9269 39.4903 11.9055 39.5085C11.5771 39.7868 11.1908 40.0498 10.757 40.29C9.77104 40.8358 8.71711 41.1616 7.93777 41.1616C7.53736 41.1616 7.24799 41.0738 7.10083 40.9076C7.01818 40.8143 6.98379 40.7013 6.99579 40.5619C7.0288 40.1772 7.42309 39.6478 8.05053 39.1456C8.08678 39.1166 8.10213 39.0685 8.08932 39.0238C8.07662 38.979 8.03807 38.9463 7.99178 38.9409C6.78041 38.7988 5.85021 38.4034 5.58058 37.9492C2.50454 39.1703 0.351074 41.9832 0.351074 45.2595C0.351074 49.6556 4.22712 53.2192 9.00832 53.2192H21.0119C21.1416 53.2192 21.0413 53.1731 20.8237 53.1025Z" fill="#EF5050"/>
<path opacity="0.1" d="M4.09658 45.2596C4.09658 42.6485 5.46412 40.3311 7.57637 38.8795C6.57057 38.704 5.81835 38.35 5.58047 37.9493C2.50454 39.1704 0.351074 41.9833 0.351074 45.2596C0.351074 49.6556 4.22712 53.2192 9.00832 53.2192H12.7539C7.97274 53.2192 4.09658 49.6556 4.09658 45.2596Z" fill="black"/>
<path d="M18.5772 37.682C18.5772 36.8907 16.9527 36.2493 14.9488 36.2493C13.7214 36.2493 12.6366 36.4902 11.98 36.8587C11.3238 36.4903 10.2392 36.2493 9.01152 36.2493C7.00776 36.2493 5.38306 36.8907 5.38306 37.682C5.38306 38.3314 6.47797 38.8795 7.97813 39.0556C7.0604 39.79 6.64014 40.5618 7.01411 40.9841C7.50962 41.5435 9.21051 41.2778 10.8126 40.3909C11.2624 40.1418 11.6566 39.8706 11.9798 39.5966C12.3033 39.8707 12.6977 40.1418 13.1472 40.3909C14.7494 41.2778 16.4501 41.5433 16.9455 40.9841C17.3196 40.5618 16.8995 39.79 15.9814 39.0556C17.4826 38.8795 18.5772 38.3314 18.5772 37.682Z" fill="#368C0E"/>
<path d="M14.5476 50.6093C14.8277 52.1219 16.1523 53.2195 17.6967 53.219L44.702 53.2086C45.6523 53.2082 46.5537 52.7873 47.1615 52.0596C47.7695 51.3321 48.0214 50.3732 47.8489 49.4421L46.0449 39.7018C45.8723 38.7709 45.2935 37.9646 44.4648 37.5008C43.6362 37.037 42.6437 36.9642 41.7556 37.3013L16.5242 46.8865C15.0812 47.4348 14.2367 48.9309 14.5167 50.4435L14.5476 50.6093Z" fill="#F7931E"/>
<g opacity="0.1">
<path opacity="0.1" d="M14.5476 50.6094C14.5905 50.8416 14.6608 51.0626 14.75 51.2728C15.1223 50.6115 15.7201 50.0765 16.4749 49.7897L42.8249 39.7795C43.7523 39.4274 44.7889 39.5036 45.6542 39.9878C45.836 40.0896 46.0055 40.208 46.1627 40.3392L46.0449 39.702C45.8723 38.7711 45.2935 37.9647 44.4648 37.501C43.6362 37.0372 42.6437 36.9644 41.7556 37.3015L16.5242 46.8867C15.0812 47.435 14.2367 48.931 14.5167 50.4437L14.5476 50.6094Z" fill="black"/>
</g>
<path d="M43.1545 49.1595C43.0647 48.6898 42.6101 48.382 42.1416 48.4719C41.6721 48.5617 41.3642 49.0152 41.454 49.4847L42.1667 53.2097L43.9293 53.209L43.1545 49.1595Z" fill="#FFC502"/>
<path d="M38.4631 50.1859C38.3744 49.716 37.922 49.4072 37.452 49.4956C36.9822 49.5841 36.6731 50.0368 36.7617 50.5066L37.2717 53.2115L39.0334 53.2108L38.4631 50.1859Z" fill="#FFC502"/>
<path d="M33.8746 43.6659C33.9735 44.0586 34.3261 44.3203 34.7135 44.3203C34.7834 44.3203 34.8547 44.3118 34.9255 44.2939C35.3892 44.1772 35.6704 43.7067 35.5537 43.243L34.7296 39.9707L33.1001 40.5898L33.8746 43.6659Z" fill="#FFC502"/>
<path d="M29.3708 49.4315C29.286 48.9611 28.8362 48.6483 28.3653 48.7332C27.8948 48.8181 27.5821 49.2683 27.667 49.7388L28.2938 53.215L30.053 53.2143L29.3708 49.4315Z" fill="#FFC502"/>
<path d="M20.6375 47.8135C20.7231 48.2216 21.0829 48.5016 21.4838 48.5016C21.5428 48.5016 21.6026 48.4956 21.6626 48.4829C22.1306 48.3848 22.4301 47.9257 22.332 47.4579L21.7921 44.8859L20.1538 45.5083L20.6375 47.8135Z" fill="#FFC502"/>
</svg>
